<svg width="24" height="24" viewBox="0 0 24 24" fill="none" xmlns="http://www.w3.org/2000/svg">
<path d="M20.9671 5.97496C20.3099 4.69171 19.3083 3.72144 18.025 3.03286C16.7418 2.34429 15.3333 2 12.892 2H11.108C8.66667 2 7.22692 2.34429 5.97496 3.03286C4.69171 3.69014 3.72144 4.69171 3.03286 5.97496C2.34429 7.25822 2 8.66667 2 11.108V12.892C2 15.3333 2.34429 16.7731 3.03286 18.025C3.69014 19.3083 4.69171 20.2786 5.97496 20.9671C7.25822 21.6557 8.66667 22 11.108 22H12.892C15.3333 22 16.7731 21.6557 18.025 20.9671C19.3083 20.3099 20.2786 19.3083 20.9671 18.025C21.6557 16.7418 22 15.3333 22 12.892V11.108C22 8.66667 21.6557 7.22692 20.9671 5.97496ZM21.6557 13.0172C21.6557 15.4272 21.3114 16.8044 20.6229 18.0563C20.4038 18.4632 20.0595 18.8075 19.6526 19.0266C16.3036 20.8419 11.2332 20.7793 7.8842 18.9327C7.07042 19.3396 5.94366 19.59 5.00469 19.4961C4.8482 19.4961 4.8169 19.4335 4.9108 19.3083C5.56808 18.651 5.97496 17.5556 5.53678 16.9296C5.53678 16.9296 5.53678 16.9296 5.53678 16.8983C2.75117 13.1737 3.00156 6.35055 6.28795 3.22066C6.41315 3.09546 6.53834 3.03287 6.69484 2.97027C7.759 2.53208 9.04226 2.31299 10.9515 2.31299H12.7042C15.1142 2.31299 16.5853 2.62598 17.8372 3.28326C19.0892 3.94053 20.0595 4.9108 20.7167 6.16276C21.374 7.41471 21.6557 8.85446 21.6557 11.2332V13.0172Z" fill="#1982e8"/>
<path d="M9.88741 9.69959C9.91871 9.66829 9.98131 9.57439 10.0126 9.54309V9.51179C10.1691 9.2927 10.2004 9.10491 10.2004 8.88581V8.76062H6.28804V9.60569H9.01104L6.31934 12.9234C6.22544 13.0486 6.16284 13.1738 6.16284 13.4242V13.6432H9.85611C10.0439 13.6432 10.2004 13.4868 10.2004 13.299V12.8608H7.3522L9.88741 9.69959Z" fill="#1982e8"/>
<path d="M14.9265 13.3616C14.9265 13.5181 15.0517 13.6432 15.2082 13.6432H15.7716V8.76062H14.9265V13.3616Z" fill="#1982e8"/>
<path d="M18.2442 9.82471C17.1801 9.82471 16.3037 10.7011 16.3037 11.7652C16.3037 12.8294 17.1801 13.7058 18.2442 13.7058C19.3084 13.7058 20.1848 12.8294 20.1848 11.7652C20.1535 10.6698 19.3084 9.82471 18.2442 9.82471ZM18.2442 12.892C17.6183 12.892 17.1175 12.3912 17.1175 11.7652C17.1175 11.1393 17.6183 10.6385 18.2442 10.6385C18.8702 10.6385 19.371 11.1393 19.371 11.7652C19.371 12.3912 18.8702 12.892 18.2442 12.892Z" fill="#1982e8"/>
<path d="M13.4554 10.2317C13.1424 10.0126 12.7356 9.85608 12.3287 9.85608C11.2645 9.85608 10.4194 10.7011 10.4194 11.7653C10.4194 12.8295 11.2645 13.6745 12.3287 13.6745C12.7669 13.6745 13.1424 13.5494 13.4554 13.299C13.4554 13.4868 13.6119 13.6432 13.7997 13.6432H14.2379V9.94998H13.4554V10.2317ZM12.3287 12.8921C11.7027 12.8921 11.2019 12.3913 11.2019 11.7653C11.2019 11.1393 11.7027 10.6386 12.3287 10.6386C12.9546 10.6386 13.4554 11.1393 13.4554 11.7653C13.4554 12.3913 12.9546 12.8921 12.3287 12.8921Z" fill="#1982e8"/>
</svg>
