<svg width="43" height="16" viewBox="0 0 43 16" fill="none" xmlns="http://www.w3.org/2000/svg">
<path d="M5.026 10.518C4.42867 10.518 3.906 10.4013 3.458 10.168C3.01933 9.93467 2.65067 9.61733 2.352 9.216C2.06267 8.80533 1.84333 8.33867 1.694 7.816C1.54467 7.29333 1.47 6.74733 1.47 6.178C1.05933 6.02867 0.718667 5.814 0.448 5.534C0.186667 5.24467 0.056 4.88533 0.056 4.456C0.056 4.22267 0.107333 4.02667 0.21 3.868C0.322 3.70933 0.448 3.57867 0.588 3.476C0.737333 3.37333 0.872667 3.30333 0.994 3.266C1.00333 3.266 1.01267 3.266 1.022 3.266C1.03133 3.25667 1.04067 3.252 1.05 3.252C1.11533 3.252 1.148 3.28933 1.148 3.364C1.148 3.42 1.11533 3.462 1.05 3.49C0.938 3.53667 0.830667 3.64867 0.728 3.826C0.634667 4.00333 0.588 4.18067 0.588 4.358C0.588 4.638 0.672 4.88533 0.84 5.1C1.01733 5.30533 1.232 5.48267 1.484 5.632C1.53067 4.96 1.67067 4.29733 1.904 3.644C2.14667 2.99067 2.478 2.40267 2.898 1.88C3.318 1.348 3.82667 0.928 4.424 0.62C5.03067 0.302666 5.72133 0.143999 6.496 0.143999C7.392 0.143999 8.05467 0.353999 8.484 0.773999C8.91333 1.194 9.128 1.712 9.128 2.328C9.128 2.76667 9.058 3.168 8.918 3.532C9.198 4.12 9.338 4.79667 9.338 5.562C9.338 6.15 9.24933 6.738 9.072 7.326C8.89467 7.90467 8.624 8.43667 8.26 8.922C7.90533 9.398 7.45733 9.78067 6.916 10.07C6.37467 10.3687 5.74467 10.518 5.026 10.518ZM3.36 6.136C3.79867 6.136 4.256 6.08467 4.732 5.982C5.21733 5.87933 5.684 5.72067 6.132 5.506C6.58933 5.29133 6.99533 5.02533 7.35 4.708C7.70467 4.38133 7.98 3.994 8.176 3.546C8.008 3.19133 7.77 2.888 7.462 2.636C7.16333 2.384 6.78533 2.21133 6.328 2.118C6.29067 2.10867 6.272 2.09 6.272 2.062C6.272 1.99667 6.32333 1.964 6.426 1.964H6.566C6.94867 1.964 7.294 2.034 7.602 2.174C7.91 2.314 8.176 2.50533 8.4 2.748C8.428 2.58 8.442 2.40733 8.442 2.23C8.442 1.80067 8.33467 1.46 8.12 1.208C7.91467 0.946666 7.66267 0.76 7.364 0.647999C7.06533 0.526666 6.79 0.465999 6.538 0.465999C5.95933 0.465999 5.43667 0.629333 4.97 0.956C4.50333 1.28267 4.102 1.71667 3.766 2.258C3.43 2.79933 3.164 3.40133 2.968 4.064C2.772 4.71733 2.65067 5.37533 2.604 6.038C2.744 6.07533 2.87933 6.10333 3.01 6.122C3.15 6.13133 3.26667 6.136 3.36 6.136ZM4.984 10.196C5.488 10.196 5.95467 10.0467 6.384 9.748C6.81333 9.44933 7.18667 9.05733 7.504 8.572C7.83067 8.08667 8.08267 7.55467 8.26 6.976C8.43733 6.388 8.526 5.80933 8.526 5.24C8.526 5.09067 8.51667 4.946 8.498 4.806C8.48867 4.666 8.47467 4.53067 8.456 4.4C8.08267 4.89467 7.60667 5.296 7.028 5.604C6.44933 5.912 5.838 6.136 5.194 6.276C4.55933 6.416 3.962 6.486 3.402 6.486C3.13133 6.486 2.86067 6.472 2.59 6.444V6.57C2.59 7.214 2.674 7.81133 2.842 8.362C3.01 8.91267 3.27133 9.356 3.626 9.692C3.98067 10.028 4.43333 10.196 4.984 10.196ZM11.3531 10.056C11.1478 10.056 10.9611 9.972 10.7931 9.804C10.6345 9.636 10.5178 9.37933 10.4431 9.034C10.4058 8.87533 10.3778 8.67467 10.3591 8.432C10.3498 8.18933 10.3451 7.93267 10.3451 7.662C10.3451 7.25133 10.3591 6.82667 10.3871 6.388C10.4245 5.94933 10.4711 5.548 10.5271 5.184C10.5831 4.81067 10.6485 4.526 10.7231 4.33C10.7698 4.218 10.8538 4.12 10.9751 4.036C11.1058 3.952 11.2738 3.91 11.4791 3.91C11.6191 3.91 11.7591 3.92867 11.8991 3.966C11.8711 4.06867 11.8151 4.31133 11.7311 4.694C11.6565 5.07667 11.5911 5.50133 11.5351 5.968C11.4978 6.29467 11.4651 6.63067 11.4371 6.976C11.4091 7.312 11.3951 7.62933 11.3951 7.928C11.3951 8.31067 11.4278 8.63267 11.4931 8.894C11.5585 9.146 11.6658 9.272 11.8151 9.272C11.9925 9.272 12.1465 9.16933 12.2771 8.964C12.4171 8.74933 12.5385 8.48333 12.6411 8.166C12.7438 7.84867 12.8231 7.53133 12.8791 7.214C12.9631 6.74733 13.0378 6.248 13.1031 5.716C13.1685 5.17467 13.2431 4.71267 13.3271 4.33C13.3551 4.218 13.4345 4.12 13.5651 4.036C13.7051 3.952 13.8778 3.91 14.0831 3.91C14.2231 3.91 14.3631 3.92867 14.5031 3.966C14.4285 4.17133 14.3538 4.47933 14.2791 4.89C14.2138 5.30067 14.1578 5.75333 14.1111 6.248C14.0645 6.74267 14.0411 7.23267 14.0411 7.718C14.0411 7.96067 14.0505 8.22667 14.0691 8.516C14.0971 8.80533 14.1485 9.05267 14.2231 9.258C14.3071 9.46333 14.4238 9.566 14.5731 9.566H14.5871C14.6618 9.566 14.7411 9.52867 14.8251 9.454C14.9185 9.37933 15.0165 9.23933 15.1191 9.034C15.1938 8.90333 15.2591 8.74933 15.3151 8.572C15.3711 8.39467 15.4318 8.20333 15.4971 7.998C15.5345 7.914 15.5718 7.872 15.6091 7.872C15.6558 7.872 15.6791 7.928 15.6791 8.04V8.096C15.6605 8.33867 15.5951 8.614 15.4831 8.922C15.3711 9.23 15.2125 9.496 15.0071 9.72C14.8111 9.944 14.5731 10.056 14.2931 10.056C13.9758 10.056 13.7238 9.944 13.5371 9.72C13.3505 9.48667 13.2151 9.20667 13.1311 8.88C13.0471 8.544 12.9958 8.222 12.9771 7.914C12.9118 8.15667 12.8371 8.39933 12.7531 8.642C12.6691 8.88467 12.5665 9.09933 12.4451 9.286C12.1091 9.79933 11.7451 10.056 11.3531 10.056ZM18.1024 10.07C17.7944 10.07 17.5518 9.972 17.3744 9.776C17.1971 9.57067 17.0711 9.30933 16.9964 8.992C16.9311 8.66533 16.8984 8.31533 16.8984 7.942C16.8984 7.54067 16.9218 7.14867 16.9684 6.766C17.0244 6.374 17.0804 6.02867 17.1364 5.73C17.2018 5.43133 17.2484 5.226 17.2764 5.114C17.0151 5.09533 16.8098 5.05333 16.6604 4.988C16.5111 4.92267 16.3851 4.84333 16.2824 4.75C16.2451 5.198 16.1844 5.67867 16.1004 6.192C16.0258 6.70533 15.9371 7.2 15.8344 7.676C15.7318 8.14267 15.6198 8.544 15.4984 8.88C15.4611 9.00133 15.4004 9.062 15.3164 9.062C15.2511 9.062 15.2184 9.02 15.2184 8.936C15.2184 8.91733 15.2184 8.894 15.2184 8.866C15.2278 8.838 15.2371 8.81 15.2464 8.782C15.3958 8.35267 15.5218 7.886 15.6244 7.382C15.7271 6.86867 15.8064 6.374 15.8624 5.898C15.9184 5.422 15.9464 5.02533 15.9464 4.708V4.554C15.7131 4.45133 15.5404 4.302 15.4284 4.106C15.3258 3.91 15.2744 3.72333 15.2744 3.546C15.2744 3.41533 15.2978 3.29867 15.3444 3.196C15.4004 3.09333 15.4798 3.042 15.5824 3.042H15.6104C15.7411 3.042 15.8578 3.13533 15.9604 3.322C16.0631 3.49933 16.1471 3.7 16.2124 3.924C16.2778 4.13867 16.3104 4.31133 16.3104 4.442C16.4224 4.526 16.5438 4.58667 16.6744 4.624C16.8144 4.66133 16.9311 4.68 17.0244 4.68C17.1458 4.68 17.2251 4.66133 17.2624 4.624C17.3371 4.54933 17.4258 4.442 17.5284 4.302C17.6404 4.162 17.8131 4.092 18.0464 4.092C18.2051 4.092 18.3964 4.13867 18.6204 4.232C18.5084 4.46533 18.4058 4.73133 18.3124 5.03C18.2191 5.31933 18.1398 5.62733 18.0744 5.954C18.0651 6.02867 18.0418 6.178 18.0044 6.402C17.9671 6.626 17.9344 6.88267 17.9064 7.172C17.8784 7.46133 17.8644 7.75067 17.8644 8.04C17.8644 8.45067 17.9064 8.81467 17.9904 9.132C18.0838 9.44 18.2518 9.594 18.4944 9.594C18.6438 9.594 18.7744 9.53333 18.8864 9.412C18.9984 9.29067 19.0964 9.14133 19.1804 8.964C19.2644 8.77733 19.3344 8.6 19.3904 8.432C19.4464 8.25467 19.4884 8.11467 19.5164 8.012C19.5351 7.928 19.5724 7.886 19.6284 7.886C19.6751 7.886 19.6984 7.93733 19.6984 8.04V8.11C19.6984 8.53933 19.6191 8.90333 19.4604 9.202C19.3111 9.49133 19.1151 9.71067 18.8724 9.86C18.6298 10 18.3731 10.07 18.1024 10.07ZM23.556 10.154C23.136 10.154 22.7813 10.056 22.492 9.86C22.212 9.65467 22.072 9.29533 22.072 8.782C22.072 8.76333 22.072 8.72133 22.072 8.656C22.0813 8.58133 22.0907 8.50667 22.1 8.432C22.044 8.32933 22.016 8.18933 22.016 8.012C22.016 7.9 22.0347 7.802 22.072 7.718C22.1093 7.634 22.1653 7.592 22.24 7.592H22.254C22.282 7.592 22.3193 7.62467 22.366 7.69C22.4873 7.34467 22.5993 6.99 22.702 6.626C22.8047 6.25267 22.898 5.92133 22.982 5.632C23.0753 5.296 23.192 4.93667 23.332 4.554C23.4813 4.162 23.7147 3.86333 24.032 3.658C24.2747 3.49933 24.536 3.42 24.816 3.42C24.8347 3.42 24.858 3.42467 24.886 3.434C24.914 3.434 24.9373 3.434 24.956 3.434C25.0307 3.44333 25.068 3.476 25.068 3.532C25.068 3.59733 25.0353 3.63 24.97 3.63C24.8673 3.63933 24.7927 3.72333 24.746 3.882C24.6993 4.03133 24.676 4.204 24.676 4.4C24.676 4.44667 24.676 4.498 24.676 4.554C24.676 4.61 24.6807 4.66133 24.69 4.708C24.7273 5.016 24.8113 5.35667 24.942 5.73C25.0727 6.094 25.194 6.46267 25.306 6.836C25.4273 7.2 25.488 7.54067 25.488 7.858V7.928C25.488 8.04933 25.4787 8.18 25.46 8.32C25.4507 8.46 25.4227 8.59533 25.376 8.726C25.5067 8.71667 25.6327 8.70267 25.754 8.684C25.8847 8.656 26.0013 8.62333 26.104 8.586C26.2347 8.53 26.3373 8.46467 26.412 8.39C26.496 8.31533 26.566 8.23133 26.622 8.138C26.6407 8.11 26.664 8.096 26.692 8.096C26.7667 8.096 26.804 8.14267 26.804 8.236C26.804 8.264 26.7947 8.29667 26.776 8.334C26.6733 8.53933 26.4867 8.70733 26.216 8.838C25.9453 8.96867 25.628 9.04333 25.264 9.062C25.1333 9.36067 24.928 9.61733 24.648 9.832C24.3773 10.0467 24.0133 10.154 23.556 10.154ZM24.228 8.572C24.2467 8.46933 24.2607 8.362 24.27 8.25C24.2793 8.138 24.284 8.026 24.284 7.914C24.284 7.73667 24.2747 7.55933 24.256 7.382C24.2373 7.19533 24.214 7.01333 24.186 6.836C24.1207 6.39733 24.0413 5.996 23.948 5.632C23.864 5.268 23.822 4.94133 23.822 4.652C23.822 4.50267 23.836 4.36733 23.864 4.246C23.8173 4.246 23.766 4.316 23.71 4.456C23.654 4.596 23.598 4.75467 23.542 4.932C23.486 5.10933 23.4393 5.268 23.402 5.408C23.29 5.80933 23.1687 6.22467 23.038 6.654C22.9073 7.074 22.7673 7.48933 22.618 7.9C22.7207 7.96533 22.8373 8.03067 22.968 8.096C23.108 8.16133 23.2433 8.222 23.374 8.278C23.4953 8.334 23.626 8.39 23.766 8.446C23.9153 8.49267 24.0693 8.53467 24.228 8.572ZM23.178 9.692H23.234C23.402 9.67333 23.57 9.61733 23.738 9.524C23.906 9.42133 24.0273 9.26733 24.102 9.062C24.102 9.05267 24.102 9.048 24.102 9.048C24.1113 9.03867 24.116 9.02933 24.116 9.02C23.7707 8.992 23.444 8.95 23.136 8.894C22.8373 8.82867 22.5947 8.74933 22.408 8.656C22.408 8.684 22.4033 8.712 22.394 8.74C22.394 8.768 22.394 8.79133 22.394 8.81C22.394 9.09 22.464 9.30933 22.604 9.468C22.7533 9.61733 22.9447 9.692 23.178 9.692ZM27.902 10.07C27.622 10.07 27.3933 9.98133 27.216 9.804C27.048 9.62667 26.9173 9.40267 26.824 9.132C26.7307 8.86133 26.6653 8.58133 26.628 8.292C26.6 8.00267 26.586 7.746 26.586 7.522V7.312C26.5953 7.2 26.6047 6.99 26.614 6.682C26.6233 6.374 26.6373 6.01467 26.656 5.604C26.6747 5.184 26.7027 4.75933 26.74 4.33H26.306C26.2313 4.33 26.194 4.28333 26.194 4.19C26.194 4.14333 26.2127 4.09667 26.25 4.05C26.278 3.994 26.3153 3.966 26.362 3.966H26.768C26.8053 3.52733 26.8473 3.13067 26.894 2.776C26.9407 2.42133 26.9967 2.16933 27.062 2.02C27.1087 1.91733 27.1927 1.82867 27.314 1.754C27.4353 1.67 27.5987 1.628 27.804 1.628C27.86 1.628 27.9207 1.63267 27.986 1.642C28.0607 1.65133 28.1307 1.66533 28.196 1.684C28.1493 1.84267 28.0933 2.132 28.028 2.552C27.972 2.96267 27.9207 3.434 27.874 3.966H28.994C29.078 3.966 29.12 4.01733 29.12 4.12C29.12 4.16667 29.106 4.21333 29.078 4.26C29.05 4.30667 29.008 4.33 28.952 4.33H27.832C27.7853 4.84333 27.748 5.37533 27.72 5.926C27.692 6.46733 27.6733 6.96667 27.664 7.424V7.746C27.664 7.98867 27.6733 8.25467 27.692 8.544C27.7107 8.83333 27.7573 9.08067 27.832 9.286C27.9067 9.49133 28.0187 9.594 28.168 9.594H28.182C28.2567 9.594 28.336 9.55667 28.42 9.482C28.5133 9.40733 28.6113 9.26733 28.714 9.062C28.7887 8.93133 28.854 8.77733 28.91 8.6C28.9753 8.41333 29.0407 8.21733 29.106 8.012C29.1433 7.928 29.1807 7.886 29.218 7.886C29.2647 7.886 29.288 7.942 29.288 8.054V8.11C29.2693 8.35267 29.204 8.628 29.092 8.936C28.98 9.244 28.8213 9.51 28.616 9.734C28.42 9.958 28.182 10.07 27.902 10.07ZM30.6836 10.14C30.3663 10.14 30.105 10.056 29.8996 9.888C29.7036 9.72 29.5496 9.50067 29.4376 9.23C29.335 8.95933 29.2603 8.66533 29.2136 8.348C29.1763 8.02133 29.1576 7.704 29.1576 7.396C29.1576 7.16267 29.167 6.948 29.1856 6.752C29.2043 6.54667 29.2183 6.36933 29.2276 6.22C29.2743 5.828 29.377 5.436 29.5356 5.044C29.6943 4.64267 29.9276 4.31133 30.2356 4.05C30.5436 3.77933 30.9496 3.644 31.4536 3.644C31.8923 3.644 32.2096 3.82133 32.4056 4.176C32.6016 4.53067 32.7183 4.95067 32.7556 5.436C32.9143 5.548 33.059 5.604 33.1896 5.604C33.3576 5.604 33.5163 5.52 33.6656 5.352C33.815 5.184 33.941 4.904 34.0436 4.512C33.9223 4.39067 33.829 4.246 33.7636 4.078C33.6983 3.90067 33.6656 3.728 33.6656 3.56C33.6656 3.364 33.7076 3.196 33.7916 3.056C33.8756 2.90667 34.0063 2.832 34.1836 2.832C34.2023 2.832 34.2163 2.83667 34.2256 2.846C34.2443 2.846 34.263 2.846 34.2816 2.846C34.403 2.86467 34.487 2.93467 34.5336 3.056C34.5803 3.17733 34.6036 3.31733 34.6036 3.476C34.6036 3.69067 34.5756 3.91467 34.5196 4.148C34.473 4.372 34.431 4.53533 34.3936 4.638C34.375 4.67533 34.3656 4.70333 34.3656 4.722C34.4123 4.73133 34.4543 4.736 34.4916 4.736C34.5383 4.736 34.5803 4.736 34.6176 4.736C34.879 4.736 35.061 4.68467 35.1636 4.582C35.2383 4.50733 35.3223 4.40467 35.4156 4.274C35.5183 4.134 35.6723 4.064 35.8776 4.064C36.0363 4.064 36.2136 4.11533 36.4096 4.218C36.3816 4.274 36.3443 4.358 36.2976 4.47C36.251 4.57267 36.1996 4.708 36.1436 4.876C36.0036 5.296 35.8776 5.772 35.7656 6.304C35.6536 6.82667 35.5883 7.36333 35.5696 7.914V8.166C35.5696 8.34333 35.5836 8.54867 35.6116 8.782C35.6396 9.006 35.691 9.202 35.7656 9.37C35.8496 9.538 35.9756 9.63133 36.1436 9.65H36.1996C36.3863 9.65 36.5356 9.594 36.6476 9.482C36.7596 9.36067 36.853 9.22533 36.9276 9.076C37.0023 8.94533 37.0676 8.78667 37.1236 8.6C37.189 8.41333 37.2543 8.21733 37.3196 8.012C37.357 7.928 37.3943 7.886 37.4316 7.886C37.4783 7.886 37.5016 7.942 37.5016 8.054V8.11C37.4923 8.29667 37.4596 8.49733 37.4036 8.712C37.3476 8.91733 37.2636 9.10867 37.1516 9.286L36.9696 9.566C36.7643 9.86467 36.4843 10.042 36.1296 10.098C36.0923 10.1073 36.0503 10.112 36.0036 10.112C35.9663 10.112 35.9243 10.112 35.8776 10.112C35.5416 10.112 35.285 10.014 35.1076 9.818C34.9303 9.61267 34.8043 9.356 34.7296 9.048C34.6643 8.73067 34.6316 8.40867 34.6316 8.082C34.6316 7.83933 34.641 7.61067 34.6596 7.396C34.6876 7.172 34.711 6.976 34.7296 6.808C34.8136 6.11733 34.9163 5.53867 35.0376 5.072C34.8883 5.1 34.753 5.114 34.6316 5.114C34.5476 5.114 34.473 5.10933 34.4076 5.1C34.3423 5.08133 34.2816 5.06733 34.2256 5.058C34.0763 5.366 33.9083 5.58533 33.7216 5.716C33.535 5.83733 33.3483 5.898 33.1616 5.898C33.0496 5.898 32.9236 5.87467 32.7836 5.828V5.94C32.7836 6.34133 32.7556 6.73333 32.6996 7.116C32.653 7.48933 32.597 7.788 32.5316 8.012C32.457 8.30133 32.3356 8.614 32.1676 8.95C31.9996 9.27667 31.7896 9.55667 31.5376 9.79C31.295 10.0233 31.0103 10.14 30.6836 10.14ZM31.1456 9.37C31.3416 9.37 31.505 9.27667 31.6356 9.09C31.7756 8.90333 31.8923 8.68867 31.9856 8.446C32.079 8.20333 32.1443 7.998 32.1816 7.83C32.219 7.69 32.247 7.508 32.2656 7.284C32.2936 7.06 32.3076 6.82667 32.3076 6.584C32.3076 6.388 32.2936 6.192 32.2656 5.996C32.247 5.79067 32.2143 5.59933 32.1676 5.422C32.037 5.31933 31.897 5.17467 31.7476 4.988C31.6076 4.792 31.5376 4.60533 31.5376 4.428C31.5376 4.26 31.617 4.12933 31.7756 4.036C31.6823 3.97067 31.5936 3.938 31.5096 3.938C31.3416 3.938 31.1923 4.03133 31.0616 4.218C30.931 4.40467 30.819 4.62867 30.7256 4.89C30.6416 5.15133 30.5716 5.40333 30.5156 5.646C30.469 5.87933 30.441 6.04267 30.4316 6.136C30.4223 6.23867 30.4083 6.39733 30.3896 6.612C30.371 6.81733 30.3616 7.046 30.3616 7.298C30.3616 7.61533 30.3803 7.93267 30.4176 8.25C30.4643 8.56733 30.5436 8.83333 30.6556 9.048C30.7676 9.26267 30.931 9.37 31.1456 9.37ZM37.9068 15.152C37.3934 15.152 37.0294 15.0213 36.8147 14.76C36.5907 14.508 36.4787 14.1907 36.4787 13.808C36.4787 13.5187 36.5301 13.2107 36.6327 12.884C36.7354 12.5573 36.8661 12.24 37.0248 11.932C37.2488 11.512 37.5334 11.1247 37.8788 10.77C38.2334 10.4153 38.5974 10.1027 38.9708 9.832C39.3441 9.552 39.6661 9.328 39.9368 9.16C39.9368 9.03867 39.9321 8.84267 39.9228 8.572C39.9134 8.292 39.8994 7.97933 39.8808 7.634C39.8714 7.27933 39.8528 6.93867 39.8248 6.612C39.7501 7.02267 39.6428 7.42867 39.5028 7.83C39.3721 8.23133 39.2134 8.642 39.0267 9.062C38.9801 9.16467 38.9054 9.29533 38.8028 9.454C38.7001 9.61267 38.5834 9.75267 38.4528 9.874C38.3221 9.986 38.1821 10.042 38.0328 10.042C37.9208 10.042 37.8134 9.99533 37.7108 9.902C37.6174 9.818 37.5381 9.67333 37.4728 9.468C37.4168 9.25333 37.3701 9.01067 37.3328 8.74C37.3048 8.46933 37.2814 8.194 37.2628 7.914C37.2534 7.634 37.2488 7.382 37.2488 7.158C37.2488 7.05533 37.2488 6.96667 37.2488 6.892C37.2581 6.808 37.2628 6.738 37.2628 6.682C37.2721 6.486 37.2814 6.25267 37.2908 5.982C37.3094 5.71133 37.3374 5.44067 37.3748 5.17C37.4121 4.89 37.4681 4.652 37.5428 4.456C37.6828 4.10133 37.9581 3.924 38.3688 3.924C38.4154 3.924 38.4574 3.924 38.4948 3.924C38.5414 3.924 38.5834 3.92867 38.6208 3.938C38.6488 3.94733 38.6721 3.95667 38.6908 3.966C38.7188 3.966 38.7328 3.98 38.7328 4.008C38.7328 4.02667 38.7281 4.04067 38.7188 4.05C38.6254 4.274 38.5461 4.568 38.4808 4.932C38.4154 5.28667 38.3641 5.66933 38.3268 6.08C38.2894 6.49067 38.2708 6.88267 38.2708 7.256C38.2708 7.44267 38.2754 7.62467 38.2848 7.802C38.2941 7.97 38.3081 8.11933 38.3268 8.25C38.3548 8.40867 38.3921 8.55333 38.4388 8.684C38.4854 8.81467 38.5461 8.88 38.6208 8.88C38.6768 8.88 38.7468 8.824 38.8308 8.712C39.0174 8.45067 39.1714 8.14267 39.2928 7.788C39.4234 7.424 39.5214 7.05067 39.5868 6.668C39.6614 6.28533 39.7081 5.93067 39.7268 5.604C39.7361 5.39867 39.7454 5.184 39.7548 4.96C39.7641 4.736 39.8201 4.53533 39.9228 4.358C40.0441 4.14333 40.1934 4.01267 40.3708 3.966C40.5574 3.91933 40.7161 3.896 40.8468 3.896H41.0148C41.1548 3.896 41.2248 3.924 41.2248 3.98C41.2248 3.99867 41.2061 4.02667 41.1688 4.064C41.0754 4.148 41.0008 4.31133 40.9448 4.554C40.8981 4.79667 40.8654 5.086 40.8468 5.422C40.8281 5.74867 40.8188 6.08933 40.8188 6.444C40.8188 6.84533 40.8234 7.23267 40.8328 7.606C40.8421 7.97 40.8468 8.25467 40.8468 8.46V8.614C41.1174 8.45533 41.3508 8.32933 41.5468 8.236C41.7521 8.13333 41.9061 8.082 42.0088 8.082C42.0274 8.082 42.0414 8.08667 42.0508 8.096C42.0601 8.096 42.0694 8.096 42.0788 8.096C42.1254 8.10533 42.1488 8.14267 42.1488 8.208C42.1488 8.236 42.1394 8.26867 42.1208 8.306C42.1021 8.334 42.0741 8.348 42.0368 8.348C41.9248 8.35733 41.7708 8.418 41.5748 8.53C41.3881 8.63267 41.2154 8.754 41.0568 8.894C40.8981 9.02467 40.8188 9.14133 40.8188 9.244V9.412C40.8188 10.7093 40.6834 11.7827 40.4128 12.632C40.1514 13.4813 39.7968 14.1113 39.3488 14.522C38.9101 14.942 38.4294 15.152 37.9068 15.152ZM37.7528 14.858H37.7948C38.1214 14.858 38.3968 14.7507 38.6208 14.536C38.8541 14.3213 39.0454 14.0367 39.1948 13.682C39.3534 13.3367 39.4794 12.9587 39.5728 12.548C39.6754 12.1373 39.7501 11.7267 39.7968 11.316C39.8528 10.9147 39.8901 10.5507 39.9088 10.224C39.9274 9.90667 39.9414 9.66867 39.9508 9.51C39.8014 9.594 39.5728 9.76667 39.2648 10.028C38.9568 10.2893 38.6348 10.6113 38.2988 10.994C37.9721 11.386 37.6968 11.8293 37.4728 12.324C37.3514 12.5947 37.2581 12.856 37.1928 13.108C37.1368 13.3693 37.1088 13.6073 37.1088 13.822C37.1088 14.13 37.1648 14.3773 37.2768 14.564C37.3888 14.76 37.5474 14.858 37.7528 14.858Z" fill="#392200"/>
</svg>
