<svg width="47" height="19" viewBox="0 0 47 19" fill="none" xmlns="http://www.w3.org/2000/svg">
<path d="M8.008 13.77C7.79333 13.77 7.57867 13.686 7.364 13.518C7.14933 13.35 6.99533 13.0933 6.902 12.748C6.80867 12.3933 6.74333 11.992 6.706 11.544C6.66867 11.096 6.65 10.6153 6.65 10.102C6.65 9.46733 6.67333 8.81867 6.72 8.156C6.776 7.484 6.846 6.83533 6.93 6.21C7.02333 5.58467 7.12133 5.02933 7.224 4.544C6.84133 4.49733 6.45867 4.45533 6.076 4.418C5.69333 4.38067 5.30133 4.348 4.9 4.32C4.77867 4.31067 4.662 4.306 4.55 4.306C4.438 4.29667 4.326 4.292 4.214 4.292C3.33667 4.292 2.59 4.404 1.974 4.628C1.358 4.84267 0.933333 5.118 0.7 5.454C0.578667 5.63133 0.518 5.818 0.518 6.014C0.518 6.30333 0.648667 6.57867 0.91 6.84C1.18067 7.092 1.57267 7.25533 2.086 7.33C2.32867 7.36733 2.56667 7.39533 2.8 7.414C3.03333 7.42333 3.25267 7.428 3.458 7.428C3.69133 7.428 3.892 7.42333 4.06 7.414C4.23733 7.39533 4.35867 7.38133 4.424 7.372C4.452 7.36267 4.494 7.358 4.55 7.358C4.69 7.358 4.76 7.386 4.76 7.442C4.76 7.498 4.66667 7.55867 4.48 7.624C4.24667 7.69867 3.97133 7.764 3.654 7.82C3.33667 7.876 3.01 7.904 2.674 7.904C2.254 7.904 1.848 7.848 1.456 7.736C1.07333 7.61467 0.756 7.414 0.504 7.134C0.261333 6.84467 0.14 6.448 0.14 5.944C0.14 5.51467 0.247333 5.15533 0.462 4.866C0.686 4.57667 0.975333 4.348 1.33 4.18C1.694 4.00267 2.08133 3.872 2.492 3.788C2.912 3.704 3.32267 3.648 3.724 3.62C4.12533 3.592 4.47533 3.578 4.774 3.578C5.28733 3.578 5.77267 3.606 6.23 3.662C6.68733 3.70867 7.07467 3.75533 7.392 3.802H7.406L7.518 3.452C7.52733 3.424 7.546 3.41 7.574 3.41C7.61133 3.40067 7.644 3.396 7.672 3.396C7.91467 3.396 8.10133 3.43333 8.232 3.508C8.36267 3.58267 8.46533 3.718 8.54 3.914L8.512 3.998C8.736 4.03533 8.96933 4.07733 9.212 4.124C9.464 4.17067 9.72067 4.21267 9.982 4.25C10.066 3.78333 10.1733 3.33067 10.304 2.892C10.444 2.45333 10.6167 2.06133 10.822 1.716C11.0273 1.36133 11.2747 1.08133 11.564 0.875999C11.8627 0.661333 12.2173 0.553999 12.628 0.553999C13.0107 0.553999 13.2907 0.707999 13.468 1.016C13.6453 1.31467 13.734 1.69267 13.734 2.15C13.734 2.486 13.6873 2.84533 13.594 3.228C13.5007 3.61067 13.37 3.99333 13.202 4.376C13.454 4.33867 13.7013 4.28733 13.944 4.222C14.196 4.14733 14.4013 4.04933 14.56 3.928C14.7187 3.79733 14.798 3.634 14.798 3.438C14.798 3.39133 14.7933 3.34467 14.784 3.298C14.7747 3.242 14.7513 3.19533 14.714 3.158C14.6953 3.13933 14.686 3.11133 14.686 3.074C14.686 3.02733 14.714 3.004 14.77 3.004C14.8353 3.004 14.8867 3.03667 14.924 3.102C15.0173 3.25133 15.064 3.396 15.064 3.536C15.064 3.816 14.9567 4.06333 14.742 4.278C14.5367 4.48333 14.2707 4.64667 13.944 4.768C13.6173 4.88933 13.2673 4.964 12.894 4.992C12.6047 5.47733 12.2547 5.92533 11.844 6.336C11.4427 6.74667 10.9807 7.05467 10.458 7.26C10.4487 7.63333 10.4393 8.016 10.43 8.408C10.43 8.8 10.416 9.29467 10.388 9.892C10.5747 9.36 10.752 8.91667 10.92 8.562C11.088 8.20733 11.2373 7.932 11.368 7.736C11.508 7.53067 11.6713 7.32533 11.858 7.12C12.054 6.90533 12.2827 6.798 12.544 6.798C12.8053 6.798 12.9733 6.89133 13.048 7.078C13.132 7.25533 13.174 7.456 13.174 7.68C13.174 7.792 13.1693 7.90867 13.16 8.03C13.1507 8.142 13.1413 8.24467 13.132 8.338C13.132 8.40333 13.118 8.57133 13.09 8.842C13.062 9.10333 13.034 9.416 13.006 9.78C12.9873 10.1347 12.978 10.494 12.978 10.858C12.978 11.1193 12.9873 11.3667 13.006 11.6C13.0247 11.824 13.0573 12.0153 13.104 12.174C13.1973 12.426 13.3187 12.552 13.468 12.552C13.5427 12.552 13.6267 12.524 13.72 12.468C13.8227 12.3933 13.9113 12.2953 13.986 12.174C14.07 12.0527 14.1353 11.9313 14.182 11.81C14.2193 11.726 14.2567 11.6327 14.294 11.53C14.3313 11.4273 14.364 11.32 14.392 11.208C14.4293 11.096 14.4807 11.04 14.546 11.04C14.5927 11.04 14.616 11.082 14.616 11.166C14.616 11.334 14.574 11.544 14.49 11.796C14.3873 12.1133 14.2333 12.412 14.028 12.692C13.832 12.9627 13.5567 13.098 13.202 13.098C12.894 13.098 12.6607 13 12.502 12.804C12.3433 12.608 12.2267 12.342 12.152 12.006C12.1147 11.8287 12.0913 11.656 12.082 11.488C12.0727 11.3107 12.068 11.1333 12.068 10.956C12.068 10.5733 12.0867 10.1907 12.124 9.808C12.1707 9.42533 12.2033 9.04733 12.222 8.674C12.2407 8.43133 12.2267 8.23067 12.18 8.072C12.1427 7.91333 12.0727 7.834 11.97 7.834C11.858 7.834 11.7227 7.94133 11.564 8.156C11.4053 8.36133 11.242 8.66467 11.074 9.066C10.906 9.458 10.766 9.906 10.654 10.41C10.542 10.9047 10.486 11.4133 10.486 11.936C10.486 12.2533 10.514 12.5753 10.57 12.902C10.5047 12.9487 10.4207 12.9953 10.318 13.042C10.2153 13.0887 10.122 13.112 10.038 13.112C9.88867 13.112 9.80933 13.0653 9.8 12.972C9.72533 12.6173 9.674 12.1553 9.646 11.586C9.618 11.0073 9.604 10.4287 9.604 9.85C9.604 9.374 9.60867 8.926 9.618 8.506C9.63667 8.086 9.65067 7.74533 9.66 7.484C9.548 7.54 9.45933 7.568 9.394 7.568C9.32867 7.568 9.296 7.54467 9.296 7.498C9.296 7.36733 9.42667 7.25533 9.688 7.162C9.70667 6.826 9.73467 6.43867 9.772 6C9.80933 5.56133 9.84667 5.17867 9.884 4.852C9.37067 4.80533 8.86667 4.74933 8.372 4.684C8.27867 5.11333 8.17133 5.65467 8.05 6.308C7.938 6.96133 7.83533 7.652 7.742 8.38C7.64867 9.108 7.588 9.80333 7.56 10.466C7.56 10.5593 7.55533 10.6573 7.546 10.76C7.546 10.8627 7.546 10.97 7.546 11.082C7.546 11.3993 7.56 11.7213 7.588 12.048C7.62533 12.3653 7.69067 12.6313 7.784 12.846C7.87733 13.0607 8.01733 13.168 8.204 13.168C8.29733 13.168 8.39533 13.1493 8.498 13.112C8.60067 13.0747 8.666 13.0373 8.694 13H8.792C8.77333 13.252 8.68467 13.4433 8.526 13.574C8.37667 13.7047 8.204 13.77 8.008 13.77ZM12.166 4.446H12.558C12.7447 4.026 12.88 3.61067 12.964 3.2C13.0573 2.78 13.104 2.40667 13.104 2.08C13.104 1.73467 13.0573 1.45467 12.964 1.24C12.8707 1.02533 12.7307 0.918 12.544 0.918C12.2453 0.918 11.9793 1.07667 11.746 1.394C11.522 1.702 11.326 2.11733 11.158 2.64C10.99 3.16267 10.8547 3.73667 10.752 4.362C11.2467 4.418 11.718 4.446 12.166 4.446ZM10.486 6.882C10.8593 6.69533 11.1953 6.434 11.494 6.098C11.7927 5.762 12.054 5.39333 12.278 4.992C12.0073 4.992 11.7367 4.98267 11.466 4.964C11.1953 4.94533 10.9293 4.93133 10.668 4.922C10.6307 5.24867 10.5933 5.58 10.556 5.916C10.528 6.24267 10.5047 6.56467 10.486 6.882ZM18.4217 13.07C18.1324 13.07 17.899 12.9813 17.7217 12.804C17.5444 12.6173 17.4044 12.384 17.3017 12.104C17.2084 11.8147 17.143 11.5253 17.1057 11.236C17.0684 10.9373 17.0497 10.676 17.0497 10.452C16.9377 10.872 16.793 11.2827 16.6157 11.684C16.4477 12.0853 16.261 12.4167 16.0557 12.678C15.8504 12.93 15.6264 13.056 15.3837 13.056H15.3697C15.1457 13.056 14.959 12.9533 14.8097 12.748C14.6604 12.5333 14.5484 12.2533 14.4737 11.908C14.399 11.5627 14.3617 11.1893 14.3617 10.788V10.648C14.3617 10.2747 14.3944 9.864 14.4597 9.416C14.525 8.95867 14.6417 8.52467 14.8097 8.114C14.9777 7.70333 15.2064 7.36733 15.4957 7.106C15.7944 6.83533 16.1724 6.7 16.6297 6.7C16.807 6.7 16.9657 6.742 17.1057 6.826C17.255 6.90067 17.3624 7.01267 17.4277 7.162C17.493 7.08733 17.5817 7.02667 17.6937 6.98C17.8057 6.93333 17.941 6.91 18.0997 6.91C18.1557 6.91 18.2164 6.91467 18.2817 6.924C18.3564 6.93333 18.431 6.94733 18.5057 6.966C18.4497 7.18067 18.3844 7.47467 18.3097 7.848C18.235 8.22133 18.1697 8.632 18.1137 9.08C18.067 9.51867 18.0437 9.948 18.0437 10.368V10.424C18.0437 10.6013 18.053 10.8113 18.0717 11.054C18.0904 11.2967 18.123 11.5347 18.1697 11.768C18.2164 12.0013 18.2817 12.1973 18.3657 12.356C18.4497 12.5147 18.557 12.594 18.6877 12.594H18.7017C18.7764 12.594 18.8557 12.5567 18.9397 12.482C19.033 12.4073 19.131 12.2673 19.2337 12.062C19.3737 11.7913 19.5044 11.4413 19.6257 11.012C19.6444 10.928 19.6817 10.886 19.7377 10.886C19.7844 10.886 19.8077 10.942 19.8077 11.054V11.11C19.789 11.3527 19.7237 11.628 19.6117 11.936C19.4997 12.244 19.341 12.51 19.1357 12.734C18.9397 12.958 18.7017 13.07 18.4217 13.07ZM15.8597 11.908C16.009 11.908 16.1444 11.8007 16.2657 11.586C16.3964 11.3713 16.513 11.11 16.6157 10.802C16.7184 10.494 16.807 10.1953 16.8817 9.906C16.9937 9.47667 17.0684 9.04267 17.1057 8.604C17.143 8.156 17.2224 7.71733 17.3437 7.288C17.2317 7.16667 17.1057 7.106 16.9657 7.106C16.7604 7.106 16.5504 7.20867 16.3357 7.414C16.121 7.61933 15.953 7.85267 15.8317 8.114C15.6824 8.44067 15.5704 8.82333 15.4957 9.262C15.4304 9.70067 15.3977 10.1207 15.3977 10.522C15.3977 10.6247 15.3977 10.7273 15.3977 10.83C15.407 10.9327 15.4164 11.0307 15.4257 11.124C15.4444 11.404 15.4957 11.6047 15.5797 11.726C15.673 11.8473 15.7664 11.908 15.8597 11.908ZM20.0333 13.112C19.9027 13.112 19.7907 13.0653 19.6973 12.972C19.6133 12.8693 19.5713 12.7013 19.5713 12.468C19.5713 12.4307 19.5713 12.3933 19.5713 12.356C19.5713 12.3093 19.576 12.2627 19.5853 12.216C19.604 12.048 19.6227 11.8147 19.6413 11.516C19.6693 11.2173 19.688 10.8813 19.6973 10.508C19.716 10.1347 19.7253 9.76133 19.7253 9.388C19.7253 8.996 19.7113 8.62733 19.6833 8.282C19.6647 7.92733 19.6273 7.64733 19.5713 7.442C19.646 7.42333 19.744 7.372 19.8653 7.288C19.9867 7.204 20.1127 7.148 20.2433 7.12C20.2713 7.11067 20.3087 7.106 20.3553 7.106C20.514 7.106 20.612 7.19 20.6493 7.358C20.696 7.526 20.7193 7.73133 20.7193 7.974C20.7193 8.142 20.7147 8.34267 20.7053 8.576C20.7053 8.8 20.696 8.996 20.6773 9.164C20.78 8.86533 20.892 8.60867 21.0133 8.394C21.1347 8.17 21.2653 7.95533 21.4053 7.75C21.5453 7.53533 21.6947 7.32533 21.8533 7.12C22.012 6.90533 22.2267 6.798 22.4973 6.798C22.7773 6.798 22.9593 6.89133 23.0433 7.078C23.1273 7.26467 23.1693 7.47 23.1693 7.694C23.1693 7.81533 23.1647 7.932 23.1553 8.044C23.146 8.14667 23.1367 8.24467 23.1273 8.338C23.1273 8.40333 23.1133 8.576 23.0853 8.856C23.0573 9.12667 23.0293 9.44867 23.0013 9.822C22.9733 10.186 22.9593 10.5547 22.9593 10.928C22.9593 11.0307 22.964 11.1753 22.9733 11.362C22.9827 11.5393 23.0013 11.7213 23.0293 11.908C23.0573 12.0853 23.104 12.2393 23.1693 12.37C23.244 12.4913 23.342 12.552 23.4633 12.552C23.538 12.552 23.622 12.524 23.7153 12.468C23.818 12.3933 23.9067 12.2953 23.9813 12.174C24.0653 12.0527 24.1307 11.9313 24.1773 11.81C24.2147 11.726 24.252 11.6327 24.2893 11.53C24.3267 11.4273 24.3593 11.32 24.3873 11.208C24.4247 11.096 24.476 11.04 24.5413 11.04C24.588 11.04 24.6113 11.0867 24.6113 11.18V11.236C24.6113 11.3013 24.5973 11.3853 24.5693 11.488C24.5507 11.5907 24.5227 11.6933 24.4853 11.796C24.3733 12.1413 24.2053 12.4447 23.9813 12.706C23.7667 12.958 23.4633 13.084 23.0713 13.084C22.81 13.084 22.6047 12.986 22.4553 12.79C22.3153 12.5847 22.2127 12.3233 22.1473 12.006C22.11 11.8287 22.082 11.6513 22.0633 11.474C22.054 11.2967 22.0493 11.1193 22.0493 10.942C22.0493 10.5033 22.0773 10.0693 22.1333 9.64C22.1987 9.20133 22.2313 8.78133 22.2313 8.38C22.2313 8.24933 22.2127 8.128 22.1753 8.016C22.1473 7.89467 22.0773 7.834 21.9653 7.834C21.8533 7.834 21.718 7.94133 21.5593 8.156C21.4007 8.36133 21.2373 8.66467 21.0693 9.066C20.9013 9.458 20.7613 9.906 20.6493 10.41C20.5373 10.9047 20.4813 11.4133 20.4813 11.936C20.4813 12.2533 20.5093 12.5753 20.5653 12.902C20.5 12.9487 20.416 12.9953 20.3133 13.042C20.2107 13.0887 20.1173 13.112 20.0333 13.112ZM27.8415 13.07C27.4682 13.07 27.1788 12.9627 26.9735 12.748C26.7682 12.5333 26.5955 12.258 26.4555 11.922C26.3528 11.6793 26.2595 11.4133 26.1755 11.124C26.0915 10.8347 26.0215 10.564 25.9655 10.312C25.9188 10.06 25.8862 9.864 25.8675 9.724C25.8675 9.70533 25.8675 9.696 25.8675 9.696C25.8768 9.68667 25.8815 9.67733 25.8815 9.668H25.8675C25.6902 10.1533 25.5362 10.6293 25.4055 11.096C25.2842 11.5533 25.2002 11.9033 25.1535 12.146C25.1535 12.1647 25.1442 12.1833 25.1255 12.202C25.0975 12.4353 25.0462 12.6033 24.9715 12.706C24.8128 12.9393 24.6122 13.056 24.3695 13.056C24.3882 12.9813 24.4022 12.846 24.4115 12.65C24.4208 12.454 24.4302 12.2207 24.4395 11.95C24.4488 11.7633 24.4535 11.5767 24.4535 11.39C24.4628 11.194 24.4675 10.998 24.4675 10.802V10.648C24.4675 10.0973 24.4582 9.57 24.4395 9.066C24.4208 8.562 24.3928 8.07667 24.3555 7.61C24.3462 7.45133 24.3322 7.23667 24.3135 6.966C24.3042 6.686 24.2995 6.38267 24.2995 6.056C24.2995 5.65467 24.3182 5.23933 24.3555 4.81C24.3928 4.38067 24.4628 3.97933 24.5655 3.606C24.6682 3.23267 24.8128 2.934 24.9995 2.71C25.1955 2.47667 25.4475 2.36 25.7555 2.36C26.1102 2.36 26.3528 2.5 26.4835 2.78C26.6142 3.05067 26.6795 3.382 26.6795 3.774C26.6795 4.17533 26.6328 4.6 26.5395 5.048C26.4555 5.496 26.3575 5.90667 26.2455 6.28C26.1428 6.644 26.0635 6.90533 26.0075 7.064C25.8862 7.40933 25.7462 7.75933 25.5875 8.114C25.4382 8.46867 25.2842 8.8 25.1255 9.108C25.1442 9.36 25.1582 9.63533 25.1675 9.934C25.1768 10.2233 25.1862 10.5173 25.1955 10.816C25.2982 10.396 25.4242 9.93867 25.5735 9.444C25.7322 8.94933 25.9188 8.478 26.1335 8.03C26.3482 7.57267 26.5955 7.19933 26.8755 6.91C27.1555 6.62067 27.4682 6.476 27.8135 6.476C28.1122 6.476 28.3082 6.56467 28.4015 6.742C28.4948 6.91933 28.5415 7.106 28.5415 7.302C28.5415 7.554 28.4435 7.82933 28.2475 8.128C28.0515 8.41733 27.8135 8.688 27.5335 8.94C27.2628 9.18267 26.9968 9.36933 26.7355 9.5C26.7542 9.63067 26.7962 9.81733 26.8615 10.06C26.9268 10.3027 27.0062 10.564 27.0995 10.844C27.1928 11.124 27.3002 11.39 27.4215 11.642C27.5522 11.894 27.6828 12.0993 27.8135 12.258C27.9535 12.4167 28.0982 12.496 28.2475 12.496C28.3782 12.496 28.4855 12.44 28.5695 12.328C28.6535 12.2067 28.7188 12.0993 28.7655 12.006C28.8868 11.7447 29.0082 11.4133 29.1295 11.012C29.1668 10.928 29.2042 10.886 29.2415 10.886C29.2882 10.886 29.3115 10.942 29.3115 11.054V11.11C29.3022 11.306 29.2555 11.53 29.1715 11.782C29.0968 12.0247 28.9942 12.2487 28.8635 12.454C28.7515 12.6313 28.6162 12.776 28.4575 12.888C28.2988 13 28.1215 13.0607 27.9255 13.07H27.8415ZM25.1115 8.59C25.3168 8.12333 25.5035 7.63333 25.6715 7.12C25.8395 6.60667 25.9748 6.098 26.0775 5.594C26.1802 5.09 26.2315 4.62333 26.2315 4.194V4.04C26.2222 3.76933 26.1895 3.54533 26.1335 3.368C26.0868 3.19067 26.0075 3.102 25.8955 3.102C25.7835 3.102 25.6808 3.214 25.5875 3.438C25.5035 3.662 25.4288 3.97 25.3635 4.362C25.3075 4.70733 25.2608 5.08067 25.2235 5.482C25.1955 5.88333 25.1722 6.27533 25.1535 6.658C25.1348 7.04067 25.1208 7.38133 25.1115 7.68C25.1022 7.96933 25.0975 8.17467 25.0975 8.296C25.0975 8.33333 25.0975 8.38 25.0975 8.436C25.0975 8.48267 25.1022 8.534 25.1115 8.59ZM25.9235 9.528C26.2782 9.472 26.5862 9.33667 26.8475 9.122C27.1182 8.898 27.3282 8.65533 27.4775 8.394C27.6362 8.13267 27.7155 7.91333 27.7155 7.736C27.7155 7.55867 27.6362 7.47 27.4775 7.47C27.3095 7.47 27.1415 7.554 26.9735 7.722C26.8148 7.88067 26.6655 8.07667 26.5255 8.31C26.3855 8.54333 26.2642 8.772 26.1615 8.996C26.0588 9.22 25.9795 9.39733 25.9235 9.528ZM32.3833 18.152C31.87 18.152 31.506 18.0213 31.2913 17.76C31.0673 17.508 30.9553 17.1907 30.9553 16.808C30.9553 16.5187 31.0066 16.2107 31.1093 15.884C31.212 15.5573 31.3426 15.24 31.5013 14.932C31.7253 14.512 32.01 14.1247 32.3553 13.77C32.71 13.4153 33.074 13.1027 33.4473 12.832C33.8206 12.552 34.1426 12.328 34.4133 12.16C34.4133 12.0387 34.4086 11.8427 34.3993 11.572C34.39 11.292 34.376 10.9793 34.3573 10.634C34.348 10.2793 34.3293 9.93867 34.3013 9.612C34.2266 10.0227 34.1193 10.4287 33.9793 10.83C33.8486 11.2313 33.69 11.642 33.5033 12.062C33.4566 12.1647 33.382 12.2953 33.2793 12.454C33.1766 12.6127 33.06 12.7527 32.9293 12.874C32.7986 12.986 32.6586 13.042 32.5093 13.042C32.3973 13.042 32.29 12.9953 32.1873 12.902C32.094 12.818 32.0146 12.6733 31.9493 12.468C31.8933 12.2533 31.8466 12.0107 31.8093 11.74C31.7813 11.4693 31.758 11.194 31.7393 10.914C31.73 10.634 31.7253 10.382 31.7253 10.158C31.7253 10.0553 31.7253 9.96667 31.7253 9.892C31.7346 9.808 31.7393 9.738 31.7393 9.682C31.7486 9.486 31.758 9.25267 31.7673 8.982C31.786 8.71133 31.814 8.44067 31.8513 8.17C31.8886 7.89 31.9446 7.652 32.0193 7.456C32.1593 7.10133 32.4346 6.924 32.8453 6.924C32.892 6.924 32.934 6.924 32.9713 6.924C33.018 6.924 33.06 6.92867 33.0973 6.938C33.1253 6.94733 33.1486 6.95667 33.1673 6.966C33.1953 6.966 33.2093 6.98 33.2093 7.008C33.2093 7.02667 33.2046 7.04067 33.1953 7.05C33.102 7.274 33.0226 7.568 32.9573 7.932C32.892 8.28667 32.8406 8.66933 32.8033 9.08C32.766 9.49067 32.7473 9.88267 32.7473 10.256C32.7473 10.4427 32.752 10.6247 32.7613 10.802C32.7706 10.97 32.7846 11.1193 32.8033 11.25C32.8313 11.4087 32.8686 11.5533 32.9153 11.684C32.962 11.8147 33.0226 11.88 33.0973 11.88C33.1533 11.88 33.2233 11.824 33.3073 11.712C33.494 11.4507 33.648 11.1427 33.7693 10.788C33.9 10.424 33.998 10.0507 34.0633 9.668C34.138 9.28533 34.1846 8.93067 34.2033 8.604C34.2126 8.39867 34.222 8.184 34.2313 7.96C34.2406 7.736 34.2966 7.53533 34.3993 7.358C34.5206 7.14333 34.67 7.01267 34.8473 6.966C35.034 6.91933 35.1926 6.896 35.3233 6.896H35.4913C35.6313 6.896 35.7013 6.924 35.7013 6.98C35.7013 6.99867 35.6826 7.02667 35.6453 7.064C35.552 7.148 35.4773 7.31133 35.4213 7.554C35.3746 7.79667 35.342 8.086 35.3233 8.422C35.3046 8.74867 35.2953 9.08933 35.2953 9.444C35.2953 9.84533 35.3 10.2327 35.3093 10.606C35.3186 10.97 35.3233 11.2547 35.3233 11.46V11.614C35.594 11.4553 35.8273 11.3293 36.0233 11.236C36.2286 11.1333 36.3826 11.082 36.4853 11.082C36.504 11.082 36.518 11.0867 36.5273 11.096C36.5366 11.096 36.546 11.096 36.5553 11.096C36.602 11.1053 36.6253 11.1427 36.6253 11.208C36.6253 11.236 36.616 11.2687 36.5973 11.306C36.5786 11.334 36.5506 11.348 36.5133 11.348C36.4013 11.3573 36.2473 11.418 36.0513 11.53C35.8646 11.6327 35.692 11.754 35.5333 11.894C35.3746 12.0247 35.2953 12.1413 35.2953 12.244V12.412C35.2953 13.7093 35.16 14.7827 34.8893 15.632C34.628 16.4813 34.2733 17.1113 33.8253 17.522C33.3866 17.942 32.906 18.152 32.3833 18.152ZM32.2293 17.858H32.2713C32.598 17.858 32.8733 17.7507 33.0973 17.536C33.3306 17.3213 33.522 17.0367 33.6713 16.682C33.83 16.3367 33.956 15.9587 34.0493 15.548C34.152 15.1373 34.2266 14.7267 34.2733 14.316C34.3293 13.9147 34.3666 13.5507 34.3853 13.224C34.404 12.9067 34.418 12.6687 34.4273 12.51C34.278 12.594 34.0493 12.7667 33.7413 13.028C33.4333 13.2893 33.1113 13.6113 32.7753 13.994C32.4486 14.386 32.1733 14.8293 31.9493 15.324C31.828 15.5947 31.7346 15.856 31.6693 16.108C31.6133 16.3693 31.5853 16.6073 31.5853 16.822C31.5853 17.13 31.6413 17.3773 31.7533 17.564C31.8653 17.76 32.024 17.858 32.2293 17.858ZM37.9141 13.14C37.5967 13.14 37.3354 13.056 37.1301 12.888C36.9341 12.72 36.7801 12.5007 36.6681 12.23C36.5654 11.9593 36.4907 11.6653 36.4441 11.348C36.4067 11.0213 36.3881 10.704 36.3881 10.396C36.3881 10.1627 36.3974 9.948 36.4161 9.752C36.4347 9.54667 36.4487 9.36933 36.4581 9.22C36.5047 8.828 36.6074 8.436 36.7661 8.044C36.9247 7.64267 37.1581 7.31133 37.4661 7.05C37.7741 6.77933 38.1801 6.644 38.6841 6.644C39.0387 6.644 39.3094 6.76067 39.4961 6.994C39.6921 7.218 39.8274 7.512 39.9021 7.876C39.9767 8.23067 40.0141 8.60867 40.0141 9.01C40.0141 9.122 40.0094 9.234 40.0001 9.346C40.0001 9.458 39.9954 9.57 39.9861 9.682C40.2194 9.94333 40.4994 10.074 40.8261 10.074C41.0781 10.074 41.3254 9.98067 41.5681 9.794C41.6241 9.74733 41.6754 9.724 41.7221 9.724C41.7594 9.724 41.7781 9.74733 41.7781 9.794C41.7781 9.878 41.7547 9.934 41.7081 9.962C41.5587 10.102 41.4001 10.2047 41.2321 10.27C41.0641 10.3353 40.8961 10.368 40.7281 10.368C40.4387 10.368 40.1727 10.284 39.9301 10.116C39.9114 10.2933 39.8834 10.4613 39.8461 10.62C39.8181 10.7693 39.7901 10.9 39.7621 11.012C39.6781 11.3013 39.5521 11.614 39.3841 11.95C39.2254 12.2767 39.0201 12.5567 38.7681 12.79C38.5254 13.0233 38.2407 13.14 37.9141 13.14ZM38.3761 12.37C38.5721 12.37 38.7354 12.2767 38.8661 12.09C39.0061 11.9033 39.1227 11.6887 39.2161 11.446C39.3094 11.2033 39.3747 10.998 39.4121 10.83C39.4401 10.6993 39.4634 10.55 39.4821 10.382C39.5007 10.214 39.5147 10.0133 39.5241 9.78C39.3934 9.668 39.2814 9.46733 39.1881 9.178C39.1041 8.87933 39.0621 8.59467 39.0621 8.324C39.0621 8.13733 39.0854 7.974 39.1321 7.834C39.1787 7.68467 39.2487 7.58667 39.3421 7.54C39.2861 7.4 39.2114 7.26933 39.1181 7.148C39.0247 7.01733 38.8941 6.952 38.7261 6.952C38.5674 6.952 38.4227 7.04533 38.2921 7.232C38.1707 7.41867 38.0634 7.64267 37.9701 7.904C37.8767 8.16533 37.8021 8.41267 37.7461 8.646C37.6994 8.87933 37.6714 9.04267 37.6621 9.136C37.6527 9.23867 37.6387 9.39733 37.6201 9.612C37.6014 9.81733 37.5921 10.046 37.5921 10.298C37.5921 10.6153 37.6107 10.9327 37.6481 11.25C37.6947 11.5673 37.7741 11.8333 37.8861 12.048C37.9981 12.2627 38.1614 12.37 38.3761 12.37ZM42.1422 13.056C41.9369 13.056 41.7502 12.972 41.5822 12.804C41.4235 12.636 41.3069 12.3793 41.2322 12.034C41.1949 11.8753 41.1669 11.6747 41.1482 11.432C41.1389 11.1893 41.1342 10.9327 41.1342 10.662C41.1342 10.2513 41.1482 9.82667 41.1762 9.388C41.2135 8.94933 41.2602 8.548 41.3162 8.184C41.3722 7.81067 41.4375 7.526 41.5122 7.33C41.5589 7.218 41.6429 7.12 41.7642 7.036C41.8949 6.952 42.0629 6.91 42.2682 6.91C42.4082 6.91 42.5482 6.92867 42.6882 6.966C42.6602 7.06867 42.6042 7.31133 42.5202 7.694C42.4455 8.07667 42.3802 8.50133 42.3242 8.968C42.2869 9.29467 42.2542 9.63067 42.2262 9.976C42.1982 10.312 42.1842 10.6293 42.1842 10.928C42.1842 11.3107 42.2169 11.6327 42.2822 11.894C42.3475 12.146 42.4549 12.272 42.6042 12.272C42.7815 12.272 42.9355 12.1693 43.0662 11.964C43.2062 11.7493 43.3275 11.4833 43.4302 11.166C43.5329 10.8487 43.6122 10.5313 43.6682 10.214C43.7522 9.74733 43.8269 9.248 43.8922 8.716C43.9575 8.17467 44.0322 7.71267 44.1162 7.33C44.1442 7.218 44.2235 7.12 44.3542 7.036C44.4942 6.952 44.6669 6.91 44.8722 6.91C45.0122 6.91 45.1522 6.92867 45.2922 6.966C45.2175 7.17133 45.1429 7.47933 45.0682 7.89C45.0029 8.30067 44.9469 8.75333 44.9002 9.248C44.8535 9.74267 44.8302 10.2327 44.8302 10.718C44.8302 10.9607 44.8395 11.2267 44.8582 11.516C44.8862 11.8053 44.9375 12.0527 45.0122 12.258C45.0962 12.4633 45.2129 12.566 45.3622 12.566H45.3762C45.4509 12.566 45.5302 12.5287 45.6142 12.454C45.7075 12.3793 45.8055 12.2393 45.9082 12.034C45.9829 11.9033 46.0482 11.7493 46.1042 11.572C46.1602 11.3947 46.2209 11.2033 46.2862 10.998C46.3235 10.914 46.3609 10.872 46.3982 10.872C46.4449 10.872 46.4682 10.928 46.4682 11.04V11.096C46.4495 11.3387 46.3842 11.614 46.2722 11.922C46.1602 12.23 46.0015 12.496 45.7962 12.72C45.6002 12.944 45.3622 13.056 45.0822 13.056C44.7649 13.056 44.5129 12.944 44.3262 12.72C44.1395 12.4867 44.0042 12.2067 43.9202 11.88C43.8362 11.544 43.7849 11.222 43.7662 10.914C43.7009 11.1567 43.6262 11.3993 43.5422 11.642C43.4582 11.8847 43.3555 12.0993 43.2342 12.286C42.8982 12.7993 42.5342 13.056 42.1422 13.056Z" fill="#392200"/>
</svg>
