<svg width="72" height="19" viewBox="0 0 72 19" fill="none" xmlns="http://www.w3.org/2000/svg">
<path d="M8.008 13.77C7.79333 13.77 7.57867 13.686 7.364 13.518C7.14933 13.35 6.99533 13.0933 6.902 12.748C6.80867 12.3933 6.74333 11.992 6.706 11.544C6.66867 11.096 6.65 10.6153 6.65 10.102C6.65 9.46733 6.67333 8.81867 6.72 8.156C6.776 7.484 6.846 6.83533 6.93 6.21C7.02333 5.58467 7.12133 5.02933 7.224 4.544C6.84133 4.49733 6.45867 4.45533 6.076 4.418C5.69333 4.38067 5.30133 4.348 4.9 4.32C4.77867 4.31067 4.662 4.306 4.55 4.306C4.438 4.29667 4.326 4.292 4.214 4.292C3.33667 4.292 2.59 4.404 1.974 4.628C1.358 4.84267 0.933333 5.118 0.7 5.454C0.578667 5.63133 0.518 5.818 0.518 6.014C0.518 6.30333 0.648667 6.57867 0.91 6.84C1.18067 7.092 1.57267 7.25533 2.086 7.33C2.32867 7.36733 2.56667 7.39533 2.8 7.414C3.03333 7.42333 3.25267 7.428 3.458 7.428C3.69133 7.428 3.892 7.42333 4.06 7.414C4.23733 7.39533 4.35867 7.38133 4.424 7.372C4.452 7.36267 4.494 7.358 4.55 7.358C4.69 7.358 4.76 7.386 4.76 7.442C4.76 7.498 4.66667 7.55867 4.48 7.624C4.24667 7.69867 3.97133 7.764 3.654 7.82C3.33667 7.876 3.01 7.904 2.674 7.904C2.254 7.904 1.848 7.848 1.456 7.736C1.07333 7.61467 0.756 7.414 0.504 7.134C0.261333 6.84467 0.14 6.448 0.14 5.944C0.14 5.51467 0.247333 5.15533 0.462 4.866C0.686 4.57667 0.975333 4.348 1.33 4.18C1.694 4.00267 2.08133 3.872 2.492 3.788C2.912 3.704 3.32267 3.648 3.724 3.62C4.12533 3.592 4.47533 3.578 4.774 3.578C5.28733 3.578 5.77267 3.606 6.23 3.662C6.68733 3.70867 7.07467 3.75533 7.392 3.802H7.406L7.518 3.452C7.52733 3.424 7.546 3.41 7.574 3.41C7.61133 3.40067 7.644 3.396 7.672 3.396C7.91467 3.396 8.10133 3.43333 8.232 3.508C8.36267 3.58267 8.46533 3.718 8.54 3.914L8.512 3.998C8.736 4.03533 8.96933 4.07733 9.212 4.124C9.464 4.17067 9.72067 4.21267 9.982 4.25C10.066 3.78333 10.1733 3.33067 10.304 2.892C10.444 2.45333 10.6167 2.06133 10.822 1.716C11.0273 1.36133 11.2747 1.08133 11.564 0.875999C11.8627 0.661333 12.2173 0.553999 12.628 0.553999C13.0107 0.553999 13.2907 0.707999 13.468 1.016C13.6453 1.31467 13.734 1.69267 13.734 2.15C13.734 2.486 13.6873 2.84533 13.594 3.228C13.5007 3.61067 13.37 3.99333 13.202 4.376C13.454 4.33867 13.7013 4.28733 13.944 4.222C14.196 4.14733 14.4013 4.04933 14.56 3.928C14.7187 3.79733 14.798 3.634 14.798 3.438C14.798 3.39133 14.7933 3.34467 14.784 3.298C14.7747 3.242 14.7513 3.19533 14.714 3.158C14.6953 3.13933 14.686 3.11133 14.686 3.074C14.686 3.02733 14.714 3.004 14.77 3.004C14.8353 3.004 14.8867 3.03667 14.924 3.102C15.0173 3.25133 15.064 3.396 15.064 3.536C15.064 3.816 14.9567 4.06333 14.742 4.278C14.5367 4.48333 14.2707 4.64667 13.944 4.768C13.6173 4.88933 13.2673 4.964 12.894 4.992C12.6047 5.47733 12.2547 5.92533 11.844 6.336C11.4427 6.74667 10.9807 7.05467 10.458 7.26C10.4487 7.63333 10.4393 8.016 10.43 8.408C10.43 8.8 10.416 9.29467 10.388 9.892C10.5747 9.36 10.752 8.91667 10.92 8.562C11.088 8.20733 11.2373 7.932 11.368 7.736C11.508 7.53067 11.6713 7.32533 11.858 7.12C12.054 6.90533 12.2827 6.798 12.544 6.798C12.8053 6.798 12.9733 6.89133 13.048 7.078C13.132 7.25533 13.174 7.456 13.174 7.68C13.174 7.792 13.1693 7.90867 13.16 8.03C13.1507 8.142 13.1413 8.24467 13.132 8.338C13.132 8.40333 13.118 8.57133 13.09 8.842C13.062 9.10333 13.034 9.416 13.006 9.78C12.9873 10.1347 12.978 10.494 12.978 10.858C12.978 11.1193 12.9873 11.3667 13.006 11.6C13.0247 11.824 13.0573 12.0153 13.104 12.174C13.1973 12.426 13.3187 12.552 13.468 12.552C13.5427 12.552 13.6267 12.524 13.72 12.468C13.8227 12.3933 13.9113 12.2953 13.986 12.174C14.07 12.0527 14.1353 11.9313 14.182 11.81C14.2193 11.726 14.2567 11.6327 14.294 11.53C14.3313 11.4273 14.364 11.32 14.392 11.208C14.4293 11.096 14.4807 11.04 14.546 11.04C14.5927 11.04 14.616 11.082 14.616 11.166C14.616 11.334 14.574 11.544 14.49 11.796C14.3873 12.1133 14.2333 12.412 14.028 12.692C13.832 12.9627 13.5567 13.098 13.202 13.098C12.894 13.098 12.6607 13 12.502 12.804C12.3433 12.608 12.2267 12.342 12.152 12.006C12.1147 11.8287 12.0913 11.656 12.082 11.488C12.0727 11.3107 12.068 11.1333 12.068 10.956C12.068 10.5733 12.0867 10.1907 12.124 9.808C12.1707 9.42533 12.2033 9.04733 12.222 8.674C12.2407 8.43133 12.2267 8.23067 12.18 8.072C12.1427 7.91333 12.0727 7.834 11.97 7.834C11.858 7.834 11.7227 7.94133 11.564 8.156C11.4053 8.36133 11.242 8.66467 11.074 9.066C10.906 9.458 10.766 9.906 10.654 10.41C10.542 10.9047 10.486 11.4133 10.486 11.936C10.486 12.2533 10.514 12.5753 10.57 12.902C10.5047 12.9487 10.4207 12.9953 10.318 13.042C10.2153 13.0887 10.122 13.112 10.038 13.112C9.88867 13.112 9.80933 13.0653 9.8 12.972C9.72533 12.6173 9.674 12.1553 9.646 11.586C9.618 11.0073 9.604 10.4287 9.604 9.85C9.604 9.374 9.60867 8.926 9.618 8.506C9.63667 8.086 9.65067 7.74533 9.66 7.484C9.548 7.54 9.45933 7.568 9.394 7.568C9.32867 7.568 9.296 7.54467 9.296 7.498C9.296 7.36733 9.42667 7.25533 9.688 7.162C9.70667 6.826 9.73467 6.43867 9.772 6C9.80933 5.56133 9.84667 5.17867 9.884 4.852C9.37067 4.80533 8.86667 4.74933 8.372 4.684C8.27867 5.11333 8.17133 5.65467 8.05 6.308C7.938 6.96133 7.83533 7.652 7.742 8.38C7.64867 9.108 7.588 9.80333 7.56 10.466C7.56 10.5593 7.55533 10.6573 7.546 10.76C7.546 10.8627 7.546 10.97 7.546 11.082C7.546 11.3993 7.56 11.7213 7.588 12.048C7.62533 12.3653 7.69067 12.6313 7.784 12.846C7.87733 13.0607 8.01733 13.168 8.204 13.168C8.29733 13.168 8.39533 13.1493 8.498 13.112C8.60067 13.0747 8.666 13.0373 8.694 13H8.792C8.77333 13.252 8.68467 13.4433 8.526 13.574C8.37667 13.7047 8.204 13.77 8.008 13.77ZM12.166 4.446H12.558C12.7447 4.026 12.88 3.61067 12.964 3.2C13.0573 2.78 13.104 2.40667 13.104 2.08C13.104 1.73467 13.0573 1.45467 12.964 1.24C12.8707 1.02533 12.7307 0.918 12.544 0.918C12.2453 0.918 11.9793 1.07667 11.746 1.394C11.522 1.702 11.326 2.11733 11.158 2.64C10.99 3.16267 10.8547 3.73667 10.752 4.362C11.2467 4.418 11.718 4.446 12.166 4.446ZM10.486 6.882C10.8593 6.69533 11.1953 6.434 11.494 6.098C11.7927 5.762 12.054 5.39333 12.278 4.992C12.0073 4.992 11.7367 4.98267 11.466 4.964C11.1953 4.94533 10.9293 4.93133 10.668 4.922C10.6307 5.24867 10.5933 5.58 10.556 5.916C10.528 6.24267 10.5047 6.56467 10.486 6.882ZM16.0137 13.14C15.6964 13.14 15.435 13.056 15.2297 12.888C15.0337 12.72 14.8797 12.5007 14.7677 12.23C14.665 11.9593 14.5904 11.6653 14.5437 11.348C14.5064 11.0213 14.4877 10.704 14.4877 10.396C14.4877 10.1627 14.497 9.948 14.5157 9.752C14.5344 9.54667 14.5484 9.36933 14.5577 9.22C14.6044 8.828 14.707 8.436 14.8657 8.044C15.0244 7.64267 15.2577 7.31133 15.5657 7.05C15.8737 6.77933 16.2797 6.644 16.7837 6.644C17.129 6.644 17.395 6.756 17.5817 6.98C17.7777 7.204 17.913 7.498 17.9877 7.862C18.0717 8.21667 18.1137 8.59 18.1137 8.982C18.1137 9.374 18.0857 9.75667 18.0297 10.13C17.983 10.494 17.927 10.788 17.8617 11.012C17.787 11.3013 17.6657 11.614 17.4977 11.95C17.3297 12.2767 17.1197 12.5567 16.8677 12.79C16.625 13.0233 16.3404 13.14 16.0137 13.14ZM16.4757 12.37C16.6717 12.37 16.835 12.2767 16.9657 12.09C17.1057 11.9033 17.2224 11.6887 17.3157 11.446C17.409 11.2033 17.4744 10.998 17.5117 10.83C17.549 10.6807 17.577 10.494 17.5957 10.27C17.6237 10.046 17.6377 9.808 17.6377 9.556C17.6377 9.17333 17.5957 8.8 17.5117 8.436C17.4277 8.06267 17.2737 7.80133 17.0497 7.652C16.9377 7.57733 16.8817 7.48867 16.8817 7.386C16.8817 7.31133 16.9097 7.24133 16.9657 7.176C17.0217 7.11067 17.0684 7.064 17.1057 7.036C17.0124 6.97067 16.9237 6.938 16.8397 6.938C16.6717 6.938 16.5224 7.03133 16.3917 7.218C16.261 7.40467 16.149 7.62867 16.0557 7.89C15.9717 8.15133 15.9017 8.40333 15.8457 8.646C15.799 8.87933 15.771 9.04267 15.7617 9.136C15.7524 9.23867 15.7384 9.39733 15.7197 9.612C15.701 9.81733 15.6917 10.046 15.6917 10.298C15.6917 10.6153 15.7104 10.9327 15.7477 11.25C15.7944 11.5673 15.8737 11.8333 15.9857 12.048C16.0977 12.2627 16.261 12.37 16.4757 12.37ZM18.1137 7.344C17.9924 7.344 17.8524 7.32533 17.6937 7.288C17.5444 7.24133 17.4184 7.19467 17.3157 7.148C17.2877 7.12933 17.255 7.08733 17.2177 7.022C17.1804 6.95667 17.1944 6.93333 17.2597 6.952C17.3344 6.97067 17.4277 6.98933 17.5397 7.008C17.6517 7.02667 17.759 7.036 17.8617 7.036C17.9177 7.036 17.9737 7.036 18.0297 7.036C18.0857 7.02667 18.1324 7.01733 18.1697 7.008C18.3097 6.97067 18.4077 6.90067 18.4637 6.798C18.529 6.69533 18.5617 6.58333 18.5617 6.462C18.5617 6.33133 18.5477 6.224 18.5197 6.14C18.501 6.056 18.4777 5.98133 18.4497 5.916C18.4404 5.89733 18.431 5.874 18.4217 5.846C18.4124 5.80867 18.4077 5.77133 18.4077 5.734C18.4077 5.622 18.4544 5.566 18.5477 5.566C18.641 5.566 18.7204 5.622 18.7857 5.734C18.8604 5.83667 18.9164 5.96267 18.9537 6.112C19.0004 6.26133 19.0237 6.39667 19.0237 6.518C19.0237 6.77933 18.9397 6.98467 18.7717 7.134C18.6037 7.274 18.3844 7.344 18.1137 7.344ZM17.3157 5.37C17.3157 5.37 17.311 5.37 17.3017 5.37L15.2297 4.32C15.1924 4.31067 15.1737 4.28733 15.1737 4.25C15.1737 4.17533 15.2297 4.09133 15.3417 3.998C15.4537 3.89533 15.5564 3.844 15.6497 3.844C15.6964 3.844 15.729 3.85333 15.7477 3.872L17.4277 5.258C17.437 5.26733 17.4417 5.27667 17.4417 5.286C17.4417 5.29533 17.4277 5.314 17.3997 5.342C17.381 5.36067 17.353 5.37 17.3157 5.37ZM19.8769 5.916C19.6996 5.916 19.5409 5.85067 19.4009 5.72C19.2703 5.58933 19.2049 5.43067 19.2049 5.244C19.2049 5.05733 19.2703 4.89867 19.4009 4.768C19.5409 4.63733 19.6996 4.572 19.8769 4.572C20.0636 4.572 20.2223 4.63733 20.3529 4.768C20.4836 4.89867 20.5489 5.05733 20.5489 5.244C20.5489 5.43067 20.4836 5.58933 20.3529 5.72C20.2223 5.85067 20.0636 5.916 19.8769 5.916ZM19.7789 13.07C19.4429 13.07 19.1769 12.93 18.9809 12.65C18.7943 12.3607 18.6589 11.9967 18.5749 11.558C18.5003 11.11 18.4629 10.6433 18.4629 10.158C18.4629 9.75667 18.4816 9.36933 18.5189 8.996C18.5656 8.61333 18.6169 8.282 18.6729 8.002C18.7383 7.71267 18.7989 7.50733 18.8549 7.386C18.9109 7.274 18.9996 7.17133 19.1209 7.078C19.2516 6.97533 19.4243 6.924 19.6389 6.924C19.7603 6.924 19.8816 6.938 20.0029 6.966C19.9096 7.29267 19.7976 7.74533 19.6669 8.324C19.5363 8.90267 19.4709 9.542 19.4709 10.242C19.4709 10.4847 19.4756 10.746 19.4849 11.026C19.4943 11.2967 19.5176 11.5533 19.5549 11.796C19.5923 12.0293 19.6483 12.2207 19.7229 12.37C19.8069 12.5193 19.9143 12.594 20.0449 12.594H20.0589C20.1336 12.594 20.2129 12.5567 20.2969 12.482C20.3903 12.4073 20.4883 12.2673 20.5909 12.062C20.7309 11.7913 20.8616 11.4413 20.9829 11.012C21.0016 10.928 21.0389 10.886 21.0949 10.886C21.1416 10.886 21.1649 10.942 21.1649 11.054V11.11C21.1463 11.3527 21.0809 11.628 20.9689 11.936C20.8569 12.244 20.6983 12.51 20.4929 12.734C20.2969 12.958 20.0589 13.07 19.7789 13.07ZM24.8229 18.152C24.3095 18.152 23.9409 18.0213 23.7169 17.76C23.5022 17.508 23.3949 17.1907 23.3949 16.808C23.3949 16.5187 23.4462 16.2107 23.5489 15.884C23.6515 15.5667 23.7822 15.2493 23.9409 14.932C24.1555 14.512 24.4402 14.1247 24.7949 13.77C25.1495 13.4153 25.5135 13.1027 25.8869 12.832C26.2602 12.552 26.5822 12.328 26.8529 12.16V12.062C26.8529 11.894 26.8435 11.6653 26.8249 11.376C26.8155 11.0867 26.8015 10.7833 26.7829 10.466C26.7642 10.1487 26.7455 9.86867 26.7269 9.626C26.7082 9.69133 26.6895 9.75667 26.6709 9.822C26.6522 9.878 26.6335 9.934 26.6149 9.99C26.5309 10.3073 26.4329 10.648 26.3209 11.012C26.2089 11.376 26.0782 11.7167 25.9289 12.034C25.7795 12.342 25.6069 12.5987 25.4109 12.804C25.2242 13 25.0142 13.098 24.7809 13.098C24.5382 13.098 24.3422 13.0233 24.1929 12.874C24.0435 12.7247 23.9315 12.538 23.8569 12.314C23.7822 12.0807 23.7309 11.8427 23.7029 11.6C23.6749 11.3573 23.6609 11.138 23.6609 10.942C23.6609 10.1953 23.7449 9.486 23.9129 8.814C24.0902 8.142 24.3935 7.60533 24.8229 7.204C25.0095 7.02667 25.2009 6.90067 25.3969 6.826C25.6022 6.75133 25.7935 6.714 25.9709 6.714C26.1855 6.714 26.3815 6.76067 26.5589 6.854C26.7455 6.938 26.8949 7.05 27.0069 7.19C27.1189 7.05933 27.2449 6.98 27.3849 6.952C27.5249 6.91467 27.6509 6.896 27.7629 6.896H27.9309C28.0709 6.896 28.1409 6.924 28.1409 6.98C28.1409 6.99867 28.1222 7.02667 28.0849 7.064C27.9915 7.148 27.9169 7.31133 27.8609 7.554C27.8142 7.79667 27.7815 8.086 27.7629 8.422C27.7442 8.74867 27.7349 9.08933 27.7349 9.444C27.7349 9.84533 27.7395 10.2327 27.7489 10.606C27.7582 10.97 27.7629 11.2547 27.7629 11.46V11.614C28.0242 11.4553 28.2575 11.3293 28.4629 11.236C28.6682 11.1333 28.8222 11.082 28.9249 11.082C28.9435 11.082 28.9575 11.0867 28.9669 11.096C28.9762 11.096 28.9855 11.096 28.9949 11.096C29.0415 11.1053 29.0649 11.138 29.0649 11.194C29.0649 11.2313 29.0555 11.2687 29.0369 11.306C29.0182 11.334 28.9902 11.348 28.9529 11.348C28.8409 11.3573 28.6869 11.418 28.4909 11.53C28.3042 11.6327 28.1315 11.754 27.9729 11.894C27.8142 12.0247 27.7349 12.1413 27.7349 12.244V12.468C27.7349 13.756 27.5995 14.82 27.3289 15.66C27.0675 16.5 26.7129 17.1253 26.2649 17.536C25.8262 17.9467 25.3455 18.152 24.8229 18.152ZM25.1449 11.964H25.1869C25.3642 11.964 25.5229 11.8473 25.6629 11.614C25.8122 11.3807 25.9429 11.0867 26.0549 10.732C26.1762 10.368 26.2789 9.99467 26.3629 9.612C26.4562 9.22 26.5309 8.87 26.5869 8.562C26.6429 8.24467 26.6849 8.016 26.7129 7.876C26.7502 7.652 26.8155 7.46533 26.9089 7.316C26.8062 7.18533 26.6615 7.12 26.4749 7.12C26.1949 7.12 25.9522 7.20867 25.7469 7.386C25.5509 7.56333 25.3829 7.79667 25.2429 8.086C25.1122 8.37533 25.0049 8.68333 24.9209 9.01C24.8462 9.32733 24.7902 9.63533 24.7529 9.934C24.7155 10.2233 24.6969 10.466 24.6969 10.662C24.6969 10.7273 24.6969 10.83 24.6969 10.97C24.7062 11.11 24.7249 11.2593 24.7529 11.418C24.7809 11.5673 24.8229 11.698 24.8789 11.81C24.9442 11.9127 25.0329 11.964 25.1449 11.964ZM24.6689 17.858C25.1262 17.858 25.5089 17.6387 25.8169 17.2C26.1249 16.7613 26.3629 16.1407 26.5309 15.338C26.7082 14.5447 26.8202 13.602 26.8669 12.51C26.7175 12.594 26.4889 12.7667 26.1809 13.028C25.8729 13.2893 25.5509 13.6113 25.2149 13.994C24.8882 14.386 24.6129 14.8293 24.3889 15.324C24.2675 15.5947 24.1742 15.856 24.1089 16.108C24.0435 16.3693 24.0109 16.6073 24.0109 16.822C24.0109 17.13 24.0669 17.3773 24.1789 17.564C24.3002 17.76 24.4635 17.858 24.6689 17.858ZM30.3496 5.916C30.1723 5.916 30.0136 5.85067 29.8736 5.72C29.7429 5.58933 29.6776 5.43067 29.6776 5.244C29.6776 5.05733 29.7429 4.89867 29.8736 4.768C30.0136 4.63733 30.1723 4.572 30.3496 4.572C30.5363 4.572 30.6949 4.63733 30.8256 4.768C30.9563 4.89867 31.0216 5.05733 31.0216 5.244C31.0216 5.43067 30.9563 5.58933 30.8256 5.72C30.6949 5.85067 30.5363 5.916 30.3496 5.916ZM30.2516 13.07C29.9156 13.07 29.6496 12.93 29.4536 12.65C29.2669 12.3607 29.1316 11.9967 29.0476 11.558C28.9729 11.11 28.9356 10.6433 28.9356 10.158C28.9356 9.75667 28.9543 9.36933 28.9916 8.996C29.0383 8.61333 29.0896 8.282 29.1456 8.002C29.2109 7.71267 29.2716 7.50733 29.3276 7.386C29.3836 7.274 29.4723 7.17133 29.5936 7.078C29.7243 6.97533 29.8969 6.924 30.1116 6.924C30.2329 6.924 30.3543 6.938 30.4756 6.966C30.3823 7.29267 30.2703 7.74533 30.1396 8.324C30.0089 8.90267 29.9436 9.542 29.9436 10.242C29.9436 10.4847 29.9483 10.746 29.9576 11.026C29.9669 11.2967 29.9903 11.5533 30.0276 11.796C30.0649 12.0293 30.1209 12.2207 30.1956 12.37C30.2796 12.5193 30.3869 12.594 30.5176 12.594H30.5316C30.6063 12.594 30.6856 12.5567 30.7696 12.482C30.8629 12.4073 30.9609 12.2673 31.0636 12.062C31.2036 11.7913 31.3343 11.4413 31.4556 11.012C31.4743 10.928 31.5116 10.886 31.5676 10.886C31.6143 10.886 31.6376 10.942 31.6376 11.054V11.11C31.6189 11.3527 31.5536 11.628 31.4416 11.936C31.3296 12.244 31.1709 12.51 30.9656 12.734C30.7696 12.958 30.5316 13.07 30.2516 13.07ZM35.4295 13.07C35.1402 13.07 34.9068 12.9813 34.7295 12.804C34.5522 12.6173 34.4122 12.384 34.3095 12.104C34.2162 11.8147 34.1508 11.5253 34.1135 11.236C34.0762 10.9373 34.0575 10.676 34.0575 10.452C33.9455 10.872 33.8008 11.2827 33.6235 11.684C33.4555 12.0853 33.2688 12.4167 33.0635 12.678C32.8582 12.93 32.6342 13.056 32.3915 13.056H32.3775C32.1535 13.056 31.9668 12.9533 31.8175 12.748C31.6682 12.5333 31.5562 12.2533 31.4815 11.908C31.4068 11.5627 31.3695 11.1893 31.3695 10.788V10.648C31.3695 10.2747 31.4022 9.864 31.4675 9.416C31.5328 8.95867 31.6495 8.52467 31.8175 8.114C31.9855 7.70333 32.2142 7.36733 32.5035 7.106C32.8022 6.83533 33.1802 6.7 33.6375 6.7C33.8148 6.7 33.9735 6.742 34.1135 6.826C34.2628 6.90067 34.3702 7.01267 34.4355 7.162C34.5008 7.08733 34.5895 7.02667 34.7015 6.98C34.8135 6.93333 34.9488 6.91 35.1075 6.91C35.1635 6.91 35.2242 6.91467 35.2895 6.924C35.3642 6.93333 35.4388 6.94733 35.5135 6.966C35.4575 7.18067 35.3922 7.47467 35.3175 7.848C35.2428 8.22133 35.1775 8.632 35.1215 9.08C35.0748 9.51867 35.0515 9.948 35.0515 10.368V10.424C35.0515 10.6013 35.0608 10.8113 35.0795 11.054C35.0982 11.2967 35.1308 11.5347 35.1775 11.768C35.2242 12.0013 35.2895 12.1973 35.3735 12.356C35.4575 12.5147 35.5648 12.594 35.6955 12.594H35.7095C35.7842 12.594 35.8635 12.5567 35.9475 12.482C36.0408 12.4073 36.1388 12.2673 36.2415 12.062C36.3815 11.7913 36.5122 11.4413 36.6335 11.012C36.6522 10.928 36.6895 10.886 36.7455 10.886C36.7922 10.886 36.8155 10.942 36.8155 11.054V11.11C36.7968 11.3527 36.7315 11.628 36.6195 11.936C36.5075 12.244 36.3488 12.51 36.1435 12.734C35.9475 12.958 35.7095 13.07 35.4295 13.07ZM32.8675 11.908C33.0168 11.908 33.1522 11.8007 33.2735 11.586C33.4042 11.3713 33.5208 11.11 33.6235 10.802C33.7262 10.494 33.8148 10.1953 33.8895 9.906C34.0015 9.47667 34.0762 9.04267 34.1135 8.604C34.1508 8.156 34.2302 7.71733 34.3515 7.288C34.2395 7.16667 34.1135 7.106 33.9735 7.106C33.7682 7.106 33.5582 7.20867 33.3435 7.414C33.1288 7.61933 32.9608 7.85267 32.8395 8.114C32.6902 8.44067 32.5782 8.82333 32.5035 9.262C32.4382 9.70067 32.4055 10.1207 32.4055 10.522C32.4055 10.6247 32.4055 10.7273 32.4055 10.83C32.4148 10.9327 32.4242 11.0307 32.4335 11.124C32.4522 11.404 32.5035 11.6047 32.5875 11.726C32.6808 11.8473 32.7742 11.908 32.8675 11.908ZM37.0412 13.112C36.9105 13.112 36.7985 13.0653 36.7052 12.972C36.6212 12.8693 36.5792 12.7013 36.5792 12.468C36.5792 12.4307 36.5792 12.3933 36.5792 12.356C36.5792 12.3093 36.5838 12.2627 36.5932 12.216C36.6118 12.048 36.6305 11.8147 36.6492 11.516C36.6772 11.2173 36.6958 10.8813 36.7052 10.508C36.7238 10.1347 36.7332 9.76133 36.7332 9.388C36.7332 8.996 36.7192 8.62733 36.6912 8.282C36.6725 7.92733 36.6352 7.64733 36.5792 7.442C36.6538 7.42333 36.7518 7.372 36.8732 7.288C36.9945 7.204 37.1205 7.148 37.2512 7.12C37.2792 7.11067 37.3165 7.106 37.3632 7.106C37.5218 7.106 37.6198 7.19 37.6572 7.358C37.7038 7.526 37.7272 7.73133 37.7272 7.974C37.7272 8.142 37.7225 8.34267 37.7132 8.576C37.7132 8.8 37.7038 8.996 37.6852 9.164C37.7878 8.86533 37.8998 8.60867 38.0212 8.394C38.1425 8.17 38.2732 7.95533 38.4132 7.75C38.5532 7.53533 38.7025 7.32533 38.8612 7.12C39.0198 6.90533 39.2345 6.798 39.5052 6.798C39.7852 6.798 39.9672 6.89133 40.0512 7.078C40.1352 7.26467 40.1772 7.47 40.1772 7.694C40.1772 7.81533 40.1725 7.932 40.1632 8.044C40.1538 8.14667 40.1445 8.24467 40.1352 8.338C40.1352 8.40333 40.1212 8.576 40.0932 8.856C40.0652 9.12667 40.0372 9.44867 40.0092 9.822C39.9812 10.186 39.9672 10.5547 39.9672 10.928C39.9672 11.0307 39.9718 11.1753 39.9812 11.362C39.9905 11.5393 40.0092 11.7213 40.0372 11.908C40.0652 12.0853 40.1118 12.2393 40.1772 12.37C40.2518 12.4913 40.3498 12.552 40.4712 12.552C40.5458 12.552 40.6298 12.524 40.7232 12.468C40.8258 12.3933 40.9145 12.2953 40.9892 12.174C41.0732 12.0527 41.1385 11.9313 41.1852 11.81C41.2225 11.726 41.2598 11.6327 41.2972 11.53C41.3345 11.4273 41.3672 11.32 41.3952 11.208C41.4325 11.096 41.4838 11.04 41.5492 11.04C41.5958 11.04 41.6192 11.0867 41.6192 11.18V11.236C41.6192 11.3013 41.6052 11.3853 41.5772 11.488C41.5585 11.5907 41.5305 11.6933 41.4932 11.796C41.3812 12.1413 41.2132 12.4447 40.9892 12.706C40.7745 12.958 40.4712 13.084 40.0792 13.084C39.8178 13.084 39.6125 12.986 39.4632 12.79C39.3232 12.5847 39.2205 12.3233 39.1552 12.006C39.1178 11.8287 39.0898 11.6513 39.0712 11.474C39.0618 11.2967 39.0572 11.1193 39.0572 10.942C39.0572 10.5033 39.0852 10.0693 39.1412 9.64C39.2065 9.20133 39.2392 8.78133 39.2392 8.38C39.2392 8.24933 39.2205 8.128 39.1832 8.016C39.1552 7.89467 39.0852 7.834 38.9732 7.834C38.8612 7.834 38.7258 7.94133 38.5672 8.156C38.4085 8.36133 38.2452 8.66467 38.0772 9.066C37.9092 9.458 37.7692 9.906 37.6572 10.41C37.5452 10.9047 37.4892 11.4133 37.4892 11.936C37.4892 12.2533 37.5172 12.5753 37.5732 12.902C37.5078 12.9487 37.4238 12.9953 37.3212 13.042C37.2185 13.0887 37.1252 13.112 37.0412 13.112ZM45.4293 13.07C45.1493 13.07 44.9207 12.9813 44.7433 12.804C44.5753 12.6267 44.4447 12.4027 44.3513 12.132C44.258 11.8613 44.1927 11.5813 44.1553 11.292C44.1273 11.0027 44.1133 10.746 44.1133 10.522V10.312C44.1227 10.2 44.132 9.99 44.1413 9.682C44.1507 9.374 44.1647 9.01467 44.1833 8.604C44.202 8.184 44.23 7.75933 44.2673 7.33H43.8333C43.7587 7.33 43.7213 7.28333 43.7213 7.19C43.7213 7.14333 43.74 7.09667 43.7773 7.05C43.8053 6.994 43.8427 6.966 43.8893 6.966H44.2953C44.3327 6.52733 44.3747 6.13067 44.4213 5.776C44.468 5.42133 44.524 5.16933 44.5893 5.02C44.636 4.91733 44.72 4.82867 44.8413 4.754C44.9627 4.67 45.126 4.628 45.3313 4.628C45.3873 4.628 45.448 4.63267 45.5133 4.642C45.588 4.65133 45.658 4.66533 45.7233 4.684C45.6767 4.84267 45.6207 5.132 45.5553 5.552C45.4993 5.96267 45.448 6.434 45.4013 6.966H46.5213C46.6053 6.966 46.6473 7.01733 46.6473 7.12C46.6473 7.16667 46.6333 7.21333 46.6053 7.26C46.5773 7.30667 46.5353 7.33 46.4793 7.33H45.3593C45.3127 7.84333 45.2753 8.37533 45.2473 8.926C45.2193 9.46733 45.2007 9.96667 45.1913 10.424V10.746C45.1913 10.9887 45.2007 11.2547 45.2193 11.544C45.238 11.8333 45.2847 12.0807 45.3593 12.286C45.434 12.4913 45.546 12.594 45.6953 12.594H45.7093C45.784 12.594 45.8633 12.5567 45.9473 12.482C46.0407 12.4073 46.1387 12.2673 46.2413 12.062C46.316 11.9313 46.3813 11.7773 46.4373 11.6C46.5027 11.4133 46.568 11.2173 46.6333 11.012C46.6707 10.928 46.708 10.886 46.7453 10.886C46.792 10.886 46.8153 10.942 46.8153 11.054V11.11C46.7967 11.3527 46.7313 11.628 46.6193 11.936C46.5073 12.244 46.3487 12.51 46.1433 12.734C45.9473 12.958 45.7093 13.07 45.4293 13.07ZM48.211 13.14C47.8936 13.14 47.6323 13.056 47.427 12.888C47.231 12.72 47.077 12.5007 46.965 12.23C46.8623 11.9593 46.7876 11.6653 46.741 11.348C46.7036 11.0213 46.685 10.704 46.685 10.396C46.685 10.1627 46.6943 9.948 46.713 9.752C46.7316 9.54667 46.7456 9.36933 46.755 9.22C46.8016 8.828 46.9043 8.436 47.063 8.044C47.2216 7.64267 47.455 7.31133 47.763 7.05C48.071 6.77933 48.477 6.644 48.981 6.644C49.3263 6.644 49.5923 6.756 49.779 6.98C49.975 7.204 50.1103 7.498 50.185 7.862C50.269 8.21667 50.311 8.59 50.311 8.982C50.311 9.374 50.283 9.75667 50.227 10.13C50.1803 10.494 50.1243 10.788 50.059 11.012C49.9843 11.3013 49.863 11.614 49.695 11.95C49.527 12.2767 49.317 12.5567 49.065 12.79C48.8223 13.0233 48.5376 13.14 48.211 13.14ZM48.673 12.37C48.869 12.37 49.0323 12.2767 49.163 12.09C49.303 11.9033 49.4196 11.6887 49.513 11.446C49.6063 11.2033 49.6716 10.998 49.709 10.83C49.7463 10.6807 49.7743 10.494 49.793 10.27C49.821 10.046 49.835 9.808 49.835 9.556C49.835 9.17333 49.793 8.8 49.709 8.436C49.625 8.06267 49.471 7.80133 49.247 7.652C49.135 7.57733 49.079 7.48867 49.079 7.386C49.079 7.31133 49.107 7.24133 49.163 7.176C49.219 7.11067 49.2656 7.064 49.303 7.036C49.2096 6.97067 49.121 6.938 49.037 6.938C48.869 6.938 48.7196 7.03133 48.589 7.218C48.4583 7.40467 48.3463 7.62867 48.253 7.89C48.169 8.15133 48.099 8.40333 48.043 8.646C47.9963 8.87933 47.9683 9.04267 47.959 9.136C47.9496 9.23867 47.9356 9.39733 47.917 9.612C47.8983 9.81733 47.889 10.046 47.889 10.298C47.889 10.6153 47.9076 10.9327 47.945 11.25C47.9916 11.5673 48.071 11.8333 48.183 12.048C48.295 12.2627 48.4583 12.37 48.673 12.37ZM50.339 5.608C50.2456 5.608 50.1523 5.60333 50.059 5.594C49.9656 5.57533 49.9003 5.54733 49.863 5.51L48.925 4.446C48.729 4.63267 48.5283 4.81 48.323 4.978C48.1176 5.146 47.9216 5.32333 47.735 5.51C47.707 5.538 47.665 5.55667 47.609 5.566C47.5623 5.57533 47.511 5.58 47.455 5.58C47.3523 5.58 47.301 5.566 47.301 5.538C47.301 5.52867 47.3056 5.51933 47.315 5.51C47.4456 5.37 47.5996 5.19733 47.777 4.992C47.9636 4.77733 48.1456 4.56733 48.323 4.362C48.5096 4.15667 48.6683 3.984 48.799 3.844C48.9296 3.704 48.9996 3.62933 49.009 3.62H49.107C49.359 3.93733 49.611 4.25467 49.863 4.572C50.115 4.88933 50.3716 5.202 50.633 5.51C50.6423 5.51933 50.647 5.52867 50.647 5.538C50.647 5.55667 50.6143 5.57533 50.549 5.594C50.493 5.60333 50.423 5.608 50.339 5.608ZM50.717 3.956C50.661 3.984 50.6096 3.998 50.563 3.998C50.4883 3.998 50.451 3.97 50.451 3.914C50.451 3.86733 50.479 3.816 50.535 3.76C50.703 3.60133 50.8756 3.38667 51.053 3.116C51.2396 2.84533 51.333 2.59333 51.333 2.36C51.333 2.17333 51.2723 2.02867 51.151 1.926C51.0296 1.814 50.885 1.758 50.717 1.758C50.4556 1.758 50.2456 1.79533 50.087 1.87C49.9376 1.94467 49.8536 1.982 49.835 1.982C49.7323 1.982 49.695 1.94467 49.723 1.87C49.751 1.79533 49.8536 1.716 50.031 1.632C50.2176 1.548 50.4136 1.47333 50.619 1.408C50.8243 1.34267 50.9736 1.31 51.067 1.31C51.291 1.31 51.501 1.38 51.697 1.52C51.893 1.65067 51.991 1.842 51.991 2.094C51.991 2.39267 51.9163 2.668 51.767 2.92C51.627 3.172 51.459 3.38667 51.263 3.564C51.067 3.732 50.885 3.86267 50.717 3.956ZM55.3422 13.21C54.9129 13.21 54.5629 13.112 54.2922 12.916C54.0216 12.7107 53.8162 12.4493 53.6762 12.132C53.5456 11.8053 53.4662 11.4553 53.4382 11.082C53.4289 11.0073 53.4242 10.9373 53.4242 10.872C53.4242 10.7973 53.4242 10.7227 53.4242 10.648C53.4242 10.2653 53.4616 9.85933 53.5362 9.43C53.6202 8.99133 53.7556 8.58067 53.9422 8.198C54.1289 7.81533 54.3716 7.50267 54.6702 7.26C54.9782 7.01733 55.3562 6.896 55.8042 6.896C56.0842 6.896 56.3082 7.00333 56.4762 7.218C56.6536 7.42333 56.7422 7.66133 56.7422 7.932C56.7422 8.22133 56.6956 8.436 56.6022 8.576C56.5089 8.70667 56.3969 8.772 56.2662 8.772C56.0422 8.772 55.9302 8.534 55.9302 8.058C55.9302 7.87133 55.9022 7.69867 55.8462 7.54C55.7902 7.38133 55.6829 7.302 55.5242 7.302C55.3469 7.302 55.1976 7.39067 55.0762 7.568C54.9642 7.736 54.8709 7.95533 54.7962 8.226C54.7216 8.48733 54.6609 8.76733 54.6142 9.066C54.5769 9.35533 54.5489 9.63067 54.5302 9.892C54.5209 10.144 54.5162 10.34 54.5162 10.48V10.536C54.5162 10.9187 54.5489 11.278 54.6142 11.614C54.6796 11.95 54.8009 12.2207 54.9782 12.426C55.1556 12.6313 55.4029 12.734 55.7202 12.734C56.0282 12.734 56.2849 12.65 56.4902 12.482C56.6956 12.3047 56.8589 12.09 56.9802 11.838C57.1109 11.5767 57.2089 11.3107 57.2742 11.04C57.3489 10.7693 57.4049 10.5407 57.4422 10.354C57.4702 10.242 57.5076 10.186 57.5542 10.186C57.6196 10.186 57.6522 10.2653 57.6522 10.424C57.6522 10.452 57.6476 10.4893 57.6382 10.536C57.6382 10.5733 57.6336 10.6153 57.6242 10.662C57.5309 11.1193 57.4096 11.544 57.2602 11.936C57.1109 12.3187 56.8869 12.6267 56.5882 12.86C56.2896 13.0933 55.8742 13.21 55.3422 13.21ZM60.7126 13.07C60.4606 13.07 60.246 12.9907 60.0686 12.832C59.9006 12.664 59.7933 12.4493 59.7466 12.188C59.728 12.0853 59.714 11.9733 59.7046 11.852C59.6953 11.7307 59.6906 11.6047 59.6906 11.474C59.6906 11.1753 59.7046 10.8673 59.7326 10.55C59.77 10.2233 59.812 9.91533 59.8586 9.626C59.9053 9.33667 59.9426 9.09867 59.9706 8.912C59.9986 8.744 60.0126 8.57133 60.0126 8.394C60.0126 8.23533 59.9986 8.09533 59.9706 7.974C59.9426 7.85267 59.882 7.792 59.7886 7.792C59.742 7.792 59.6813 7.82 59.6066 7.876C59.532 7.932 59.4433 8.02533 59.3406 8.156C59.1633 8.38933 58.9766 8.73467 58.7806 9.192C58.594 9.64 58.4493 10.1393 58.3466 10.69C58.3373 10.774 58.3233 10.9093 58.3046 11.096C58.286 11.2827 58.2673 11.4833 58.2486 11.698C58.23 11.9127 58.2113 12.104 58.1926 12.272C58.174 12.44 58.1506 12.5473 58.1226 12.594C58.0293 12.7713 57.908 12.8927 57.7586 12.958C57.6186 13.0233 57.488 13.056 57.3666 13.056C57.3853 12.9813 57.3993 12.846 57.4086 12.65C57.418 12.454 57.4273 12.2207 57.4366 11.95C57.4553 11.726 57.4646 11.5067 57.4646 11.292C57.4646 11.068 57.4646 10.844 57.4646 10.62C57.4646 10.116 57.4553 9.612 57.4366 9.108C57.418 8.604 57.39 8.10467 57.3526 7.61C57.3433 7.45133 57.3293 7.23667 57.3106 6.966C57.3013 6.686 57.2966 6.38267 57.2966 6.056C57.2966 5.65467 57.3153 5.23933 57.3526 4.81C57.39 4.38067 57.46 3.97933 57.5626 3.606C57.6653 3.23267 57.81 2.934 57.9966 2.71C58.1926 2.47667 58.4446 2.36 58.7526 2.36C59.1073 2.36 59.35 2.5 59.4806 2.78C59.6113 3.05067 59.6766 3.382 59.6766 3.774C59.6766 4.17533 59.63 4.60467 59.5366 5.062C59.4526 5.51 59.3546 5.916 59.2426 6.28C59.14 6.644 59.0606 6.90533 59.0046 7.064C58.8833 7.40933 58.7433 7.75933 58.5846 8.114C58.4353 8.46867 58.2813 8.80467 58.1226 9.122L58.1646 10.172C58.2673 9.74267 58.398 9.32733 58.5566 8.926C58.7246 8.51533 58.9346 8.12333 59.1866 7.75C59.3266 7.53533 59.4993 7.32533 59.7046 7.12C59.9193 6.90533 60.1666 6.798 60.4466 6.798C60.7266 6.798 60.9133 6.89133 61.0066 7.078C61.1 7.26467 61.1466 7.47 61.1466 7.694C61.1466 7.92733 61.1233 8.13733 61.0766 8.324C61.0673 8.39867 61.0393 8.54333 60.9926 8.758C60.946 8.97267 60.8946 9.22933 60.8386 9.528C60.792 9.82667 60.75 10.1393 60.7126 10.466C60.6753 10.7833 60.6566 11.082 60.6566 11.362C60.6566 11.614 60.68 11.8427 60.7266 12.048C60.8106 12.3747 60.9553 12.538 61.1606 12.538C61.2166 12.538 61.2913 12.5147 61.3846 12.468C61.5806 12.3467 61.73 12.1787 61.8326 11.964C61.9353 11.74 62.0333 11.4833 62.1266 11.194C62.164 11.0913 62.22 11.04 62.2946 11.04C62.3413 11.04 62.3646 11.0867 62.3646 11.18V11.236C62.3646 11.3013 62.346 11.39 62.3086 11.502C62.2806 11.6047 62.248 11.7073 62.2106 11.81C62.0893 12.1553 61.9073 12.454 61.6646 12.706C61.4313 12.9487 61.1233 13.07 60.7406 13.07H60.7126ZM58.1086 8.534C58.314 8.07667 58.5006 7.596 58.6686 7.092C58.8366 6.57867 58.972 6.07 59.0746 5.566C59.1773 5.062 59.2286 4.6 59.2286 4.18V4.04C59.2193 3.76933 59.1866 3.54533 59.1306 3.368C59.084 3.19067 59.0046 3.102 58.8926 3.102C58.7526 3.102 58.6266 3.30267 58.5146 3.704C58.4026 4.096 58.314 4.56733 58.2486 5.118C58.1926 5.60333 58.1553 6.08867 58.1366 6.574C58.118 7.05 58.1086 7.52133 58.1086 7.988V8.534ZM63.2379 13.056C63.0326 13.056 62.8459 12.972 62.6779 12.804C62.5192 12.636 62.4026 12.3793 62.3279 12.034C62.2906 11.8753 62.2626 11.6747 62.2439 11.432C62.2346 11.1893 62.2299 10.9327 62.2299 10.662C62.2299 10.2513 62.2439 9.82667 62.2719 9.388C62.3092 8.94933 62.3559 8.548 62.4119 8.184C62.4679 7.81067 62.5332 7.526 62.6079 7.33C62.6546 7.218 62.7386 7.12 62.8599 7.036C62.9906 6.952 63.1586 6.91 63.3639 6.91C63.5039 6.91 63.6439 6.92867 63.7839 6.966C63.7559 7.06867 63.6999 7.31133 63.6159 7.694C63.5412 8.07667 63.4759 8.50133 63.4199 8.968C63.3826 9.29467 63.3499 9.63067 63.3219 9.976C63.2939 10.312 63.2799 10.6293 63.2799 10.928C63.2799 11.3107 63.3126 11.6327 63.3779 11.894C63.4432 12.146 63.5506 12.272 63.6999 12.272C63.8772 12.272 64.0312 12.1693 64.1619 11.964C64.3019 11.7493 64.4232 11.4833 64.5259 11.166C64.6286 10.8487 64.7079 10.5313 64.7639 10.214C64.8479 9.74733 64.9226 9.248 64.9879 8.716C65.0532 8.17467 65.1279 7.71267 65.2119 7.33C65.2399 7.218 65.3192 7.12 65.4499 7.036C65.5899 6.952 65.7626 6.91 65.9679 6.91C66.1079 6.91 66.2479 6.92867 66.3879 6.966C66.3132 7.17133 66.2386 7.47933 66.1639 7.89C66.0986 8.30067 66.0426 8.75333 65.9959 9.248C65.9492 9.74267 65.9259 10.2327 65.9259 10.718C65.9259 10.9607 65.9352 11.2267 65.9539 11.516C65.9819 11.8053 66.0332 12.0527 66.1079 12.258C66.1919 12.4633 66.3086 12.566 66.4579 12.566H66.4719C66.5466 12.566 66.6259 12.5287 66.7099 12.454C66.8032 12.3793 66.9012 12.2393 67.0039 12.034C67.0786 11.9033 67.1439 11.7493 67.1999 11.572C67.2559 11.3947 67.3166 11.2033 67.3819 10.998C67.4192 10.914 67.4566 10.872 67.4939 10.872C67.5406 10.872 67.5639 10.928 67.5639 11.04V11.096C67.5452 11.3387 67.4799 11.614 67.3679 11.922C67.2559 12.23 67.0972 12.496 66.8919 12.72C66.6959 12.944 66.4579 13.056 66.1779 13.056C65.8606 13.056 65.6086 12.944 65.4219 12.72C65.2352 12.4867 65.0999 12.2067 65.0159 11.88C64.9319 11.544 64.8806 11.222 64.8619 10.914C64.7966 11.1567 64.7219 11.3993 64.6379 11.642C64.5539 11.8847 64.4512 12.0993 64.3299 12.286C63.9939 12.7993 63.6299 13.056 63.2379 13.056ZM66.6259 7.54C66.5046 7.54 66.3646 7.52133 66.2059 7.484C66.0566 7.43733 65.9306 7.39067 65.8279 7.344C65.7999 7.32533 65.7672 7.28333 65.7299 7.218C65.6926 7.15267 65.7066 7.12933 65.7719 7.148C65.8466 7.16667 65.9399 7.18533 66.0519 7.204C66.1639 7.22267 66.2712 7.232 66.3739 7.232C66.4299 7.232 66.4859 7.232 66.5419 7.232C66.5979 7.22267 66.6446 7.21333 66.6819 7.204C66.8219 7.16667 66.9199 7.09667 66.9759 6.994C67.0412 6.89133 67.0739 6.77933 67.0739 6.658C67.0739 6.52733 67.0599 6.42 67.0319 6.336C67.0132 6.252 66.9899 6.17733 66.9619 6.112C66.9526 6.09333 66.9432 6.07 66.9339 6.042C66.9246 6.00467 66.9199 5.96733 66.9199 5.93C66.9199 5.818 66.9666 5.762 67.0599 5.762C67.1532 5.762 67.2326 5.818 67.2979 5.93C67.3726 6.03267 67.4286 6.15867 67.4659 6.308C67.5126 6.45733 67.5359 6.59267 67.5359 6.714C67.5359 6.97533 67.4519 7.18067 67.2839 7.33C67.1159 7.47 66.8966 7.54 66.6259 7.54ZM64.2879 5.678C64.2506 5.678 64.2179 5.66867 64.1899 5.65C64.1712 5.622 64.1619 5.59867 64.1619 5.58C64.1619 5.58 64.1666 5.57533 64.1759 5.566L65.8559 4.18C65.8839 4.16133 65.9166 4.152 65.9539 4.152C66.0472 4.152 66.1499 4.20333 66.2619 4.306C66.3739 4.39933 66.4299 4.47867 66.4299 4.544C66.4299 4.59067 66.4112 4.61867 66.3739 4.628L64.3159 5.664C64.3066 5.664 64.3019 5.66867 64.3019 5.678C64.3019 5.678 64.2972 5.678 64.2879 5.678ZM69.2032 13.266C68.7739 13.266 68.4285 13.1633 68.1672 12.958C67.9152 12.7433 67.7285 12.4727 67.6072 12.146C67.4952 11.81 67.4252 11.4553 67.3972 11.082C67.3879 11.0167 67.3832 10.9513 67.3832 10.886C67.3832 10.8113 67.3832 10.7413 67.3832 10.676C67.3832 10.2933 67.4205 9.88267 67.4952 9.444C67.5792 9.00533 67.7145 8.59467 67.9012 8.212C68.0879 7.82 68.3352 7.50267 68.6432 7.26C68.9512 7.01733 69.3292 6.896 69.7772 6.896C70.0479 6.896 70.2672 7.00333 70.4352 7.218C70.6125 7.42333 70.7012 7.66133 70.7012 7.932C70.7012 8.22133 70.6545 8.436 70.5612 8.576C70.4679 8.70667 70.3559 8.772 70.2252 8.772C70.0012 8.772 69.8892 8.534 69.8892 8.058C69.8892 7.87133 69.8612 7.69867 69.8052 7.54C69.7492 7.38133 69.6419 7.302 69.4832 7.302C69.3059 7.302 69.1565 7.39067 69.0352 7.568C68.9232 7.736 68.8299 7.95533 68.7552 8.226C68.6805 8.48733 68.6199 8.76733 68.5732 9.066C68.5359 9.35533 68.5079 9.63067 68.4892 9.892C68.4799 10.144 68.4752 10.34 68.4752 10.48V10.536C68.4752 10.9093 68.5125 11.2593 68.5872 11.586C68.6619 11.9127 68.7879 12.174 68.9652 12.37C69.1425 12.566 69.3805 12.664 69.6792 12.664C70.2299 12.664 70.6405 12.1973 70.9112 11.264C70.9392 11.152 70.9905 11.096 71.0652 11.096C71.1305 11.096 71.1632 11.1613 71.1632 11.292C71.1632 11.3573 71.1492 11.4413 71.1212 11.544C70.9719 12.0573 70.7432 12.4727 70.4352 12.79C70.1272 13.1073 69.7165 13.266 69.2032 13.266Z" fill="#392200"/>
</svg>
