<svg width="56" height="16" viewBox="0 0 56 16" fill="none" xmlns="http://www.w3.org/2000/svg">
<path d="M7.89863 10.77C7.68396 10.77 7.46929 10.686 7.25463 10.518C7.03996 10.35 6.88596 10.0933 6.79263 9.748C6.69929 9.39333 6.63396 8.992 6.59663 8.544C6.55929 8.096 6.54063 7.61533 6.54063 7.102C6.54063 6.46733 6.56396 5.81867 6.61063 5.156C6.66663 4.484 6.73663 3.83533 6.82063 3.21C6.91396 2.58467 7.01196 2.02933 7.11463 1.544C6.73196 1.49733 6.34929 1.45533 5.96663 1.418C5.58396 1.38067 5.19196 1.348 4.79063 1.32C4.66929 1.31067 4.55263 1.306 4.44063 1.306C4.32863 1.29667 4.21663 1.292 4.10463 1.292C3.22729 1.292 2.48063 1.404 1.86463 1.628C1.24863 1.84267 0.823958 2.118 0.590625 2.454C0.469292 2.63133 0.408625 2.818 0.408625 3.014C0.408625 3.30333 0.539292 3.57867 0.800625 3.84C1.07129 4.092 1.46329 4.25533 1.97663 4.33C2.21929 4.36733 2.45729 4.39533 2.69063 4.414C2.92396 4.42333 3.14329 4.428 3.34863 4.428C3.58196 4.428 3.78263 4.42333 3.95063 4.414C4.12796 4.39533 4.24929 4.38133 4.31463 4.372C4.34263 4.36267 4.38463 4.358 4.44063 4.358C4.58063 4.358 4.65063 4.386 4.65063 4.442C4.65063 4.498 4.55729 4.55867 4.37063 4.624C4.13729 4.69867 3.86196 4.764 3.54463 4.82C3.22729 4.876 2.90063 4.904 2.56463 4.904C2.14463 4.904 1.73863 4.848 1.34663 4.736C0.963958 4.61467 0.646625 4.414 0.394625 4.134C0.151958 3.84467 0.030625 3.448 0.030625 2.944C0.030625 2.51467 0.137958 2.15533 0.352625 1.866C0.576625 1.57667 0.865958 1.348 1.22063 1.18C1.58463 1.00267 1.97196 0.871999 2.38263 0.787999C2.80263 0.703999 3.21329 0.647999 3.61463 0.62C4.01596 0.592 4.36596 0.577999 4.66463 0.577999C5.17796 0.577999 5.65863 0.615333 6.10663 0.69C6.56396 0.764667 6.95596 0.802 7.28262 0.802H7.29663C7.31529 0.736666 7.33396 0.676 7.35263 0.62C7.37129 0.563999 7.38996 0.507999 7.40863 0.451999C7.41796 0.423999 7.43663 0.409999 7.46463 0.409999C7.50196 0.400666 7.53463 0.395999 7.56263 0.395999C7.80529 0.395999 7.99196 0.433333 8.12262 0.508C8.25329 0.582666 8.35596 0.718 8.43063 0.913999L8.40263 0.998C8.96263 1.10067 9.57396 1.20333 10.2366 1.306C10.8993 1.39933 11.506 1.446 12.0566 1.446C12.1873 1.446 12.3926 1.43667 12.6726 1.418C12.962 1.39933 13.2606 1.35733 13.5686 1.292C13.8766 1.22667 14.138 1.12867 14.3526 0.998C14.5766 0.857999 14.6886 0.671333 14.6886 0.438C14.6886 0.391333 14.684 0.344666 14.6746 0.298C14.6653 0.241999 14.642 0.195333 14.6046 0.158C14.586 0.139333 14.5766 0.111333 14.5766 0.0739993C14.5766 0.0273327 14.6046 0.00399935 14.6606 0.00399935C14.726 0.00399935 14.7773 0.0366662 14.8146 0.102C14.908 0.251333 14.9546 0.395999 14.9546 0.535999C14.9546 0.834666 14.838 1.096 14.6046 1.32C14.3713 1.53467 14.0726 1.70267 13.7086 1.824C13.3446 1.936 12.962 1.992 12.5606 1.992C11.7953 1.992 11.058 1.964 10.3486 1.908C9.63929 1.84267 8.94396 1.768 8.26263 1.684C8.16929 2.11333 8.06196 2.65467 7.94063 3.308C7.82863 3.96133 7.72596 4.652 7.63263 5.38C7.53929 6.108 7.47863 6.80333 7.45063 7.466C7.45063 7.55933 7.44596 7.65733 7.43663 7.76C7.43663 7.86267 7.43663 7.97 7.43663 8.082C7.43663 8.39933 7.45063 8.72133 7.47863 9.048C7.51596 9.36533 7.58129 9.63133 7.67463 9.846C7.76796 10.0607 7.90796 10.168 8.09463 10.168C8.18796 10.168 8.28596 10.1493 8.38863 10.112C8.49129 10.0747 8.55663 10.0373 8.58463 10H8.68263C8.66396 10.252 8.57529 10.4433 8.41663 10.574C8.26729 10.7047 8.09463 10.77 7.89863 10.77ZM12.4013 10.07C12.0933 10.07 11.8506 9.972 11.6733 9.776C11.4959 9.57067 11.3699 9.30933 11.2953 8.992C11.2299 8.66533 11.1973 8.31533 11.1973 7.942C11.1973 7.54067 11.2206 7.14867 11.2673 6.766C11.3233 6.374 11.3793 6.02867 11.4353 5.73C11.5006 5.43133 11.5473 5.226 11.5753 5.114C11.3139 5.09533 11.1086 5.05333 10.9593 4.988C10.8099 4.92267 10.6839 4.84333 10.5813 4.75C10.5439 5.198 10.4833 5.67867 10.3993 6.192C10.3246 6.70533 10.2359 7.2 10.1333 7.676C10.0306 8.14267 9.9186 8.544 9.79727 8.88C9.75993 9.00133 9.69927 9.062 9.61527 9.062C9.54993 9.062 9.51727 9.02 9.51727 8.936C9.51727 8.91733 9.51727 8.894 9.51727 8.866C9.5266 8.838 9.53593 8.81 9.54527 8.782C9.6946 8.35267 9.8206 7.886 9.92327 7.382C10.0259 6.86867 10.1053 6.374 10.1613 5.898C10.2173 5.422 10.2453 5.02533 10.2453 4.708V4.554C10.0119 4.45133 9.83927 4.302 9.72727 4.106C9.6246 3.91 9.57327 3.72333 9.57327 3.546C9.57327 3.41533 9.5966 3.29867 9.64327 3.196C9.69927 3.09333 9.7786 3.042 9.88127 3.042H9.90927C10.0399 3.042 10.1566 3.13533 10.2593 3.322C10.3619 3.49933 10.4459 3.7 10.5113 3.924C10.5766 4.13867 10.6093 4.31133 10.6093 4.442C10.7213 4.526 10.8426 4.58667 10.9733 4.624C11.1133 4.66133 11.2299 4.68 11.3233 4.68C11.4446 4.68 11.5239 4.66133 11.5613 4.624C11.6359 4.54933 11.7246 4.442 11.8273 4.302C11.9393 4.162 12.1119 4.092 12.3453 4.092C12.5039 4.092 12.6953 4.13867 12.9193 4.232C12.8073 4.46533 12.7046 4.73133 12.6113 5.03C12.5179 5.31933 12.4386 5.62733 12.3733 5.954C12.3639 6.02867 12.3406 6.178 12.3033 6.402C12.2659 6.626 12.2333 6.88267 12.2053 7.172C12.1773 7.46133 12.1633 7.75067 12.1633 8.04C12.1633 8.45067 12.2053 8.81467 12.2893 9.132C12.3826 9.44 12.5506 9.594 12.7933 9.594C12.9426 9.594 13.0733 9.53333 13.1853 9.412C13.2973 9.29067 13.3953 9.14133 13.4793 8.964C13.5633 8.77733 13.6333 8.6 13.6893 8.432C13.7453 8.25467 13.7873 8.11467 13.8153 8.012C13.8339 7.928 13.8713 7.886 13.9273 7.886C13.9739 7.886 13.9973 7.93733 13.9973 8.04V8.11C13.9973 8.53933 13.9179 8.90333 13.7593 9.202C13.6099 9.49133 13.4139 9.71067 13.1713 9.86C12.9286 10 12.6719 10.07 12.4013 10.07ZM17.7928 10.07C17.5035 10.07 17.2701 9.98133 17.0928 9.804C16.9155 9.61733 16.7755 9.384 16.6728 9.104C16.5795 8.81467 16.5141 8.52533 16.4768 8.236C16.4395 7.93733 16.4208 7.676 16.4208 7.452C16.3088 7.872 16.1641 8.28267 15.9868 8.684C15.8188 9.08533 15.6321 9.41667 15.4268 9.678C15.2215 9.93 14.9975 10.056 14.7548 10.056H14.7408C14.5168 10.056 14.3301 9.95333 14.1808 9.748C14.0315 9.53333 13.9195 9.25333 13.8448 8.908C13.7701 8.56267 13.7328 8.18933 13.7328 7.788V7.648C13.7328 7.27467 13.7655 6.864 13.8308 6.416C13.8961 5.95867 14.0128 5.52467 14.1808 5.114C14.3488 4.70333 14.5775 4.36733 14.8668 4.106C15.1655 3.83533 15.5435 3.7 16.0008 3.7C16.1781 3.7 16.3368 3.742 16.4768 3.826C16.6261 3.90067 16.7335 4.01267 16.7988 4.162C16.8641 4.08733 16.9528 4.02667 17.0648 3.98C17.1768 3.93333 17.3121 3.91 17.4708 3.91C17.5268 3.91 17.5875 3.91467 17.6528 3.924C17.7275 3.93333 17.8021 3.94733 17.8768 3.966C17.8208 4.18067 17.7555 4.47467 17.6808 4.848C17.6061 5.22133 17.5408 5.632 17.4848 6.08C17.4381 6.51867 17.4148 6.948 17.4148 7.368V7.424C17.4148 7.60133 17.4241 7.81133 17.4428 8.054C17.4615 8.29667 17.4941 8.53467 17.5408 8.768C17.5875 9.00133 17.6528 9.19733 17.7368 9.356C17.8208 9.51467 17.9281 9.594 18.0588 9.594H18.0728C18.1475 9.594 18.2268 9.55667 18.3108 9.482C18.4041 9.40733 18.5021 9.26733 18.6048 9.062C18.7448 8.79133 18.8755 8.44133 18.9968 8.012C19.0155 7.928 19.0528 7.886 19.1088 7.886C19.1555 7.886 19.1788 7.942 19.1788 8.054V8.11C19.1601 8.35267 19.0948 8.628 18.9828 8.936C18.8708 9.244 18.7121 9.51 18.5068 9.734C18.3108 9.958 18.0728 10.07 17.7928 10.07ZM15.2308 8.908C15.3801 8.908 15.5155 8.80067 15.6368 8.586C15.7675 8.37133 15.8841 8.11 15.9868 7.802C16.0895 7.494 16.1781 7.19533 16.2528 6.906C16.3648 6.47667 16.4395 6.04267 16.4768 5.604C16.5141 5.156 16.5935 4.71733 16.7148 4.288C16.6028 4.16667 16.4768 4.106 16.3368 4.106C16.1315 4.106 15.9215 4.20867 15.7068 4.414C15.4921 4.61933 15.3241 4.85267 15.2028 5.114C15.0535 5.44067 14.9415 5.82333 14.8668 6.262C14.8015 6.70067 14.7688 7.12067 14.7688 7.522C14.7688 7.62467 14.7688 7.72733 14.7688 7.83C14.7781 7.93267 14.7875 8.03067 14.7968 8.124C14.8155 8.404 14.8668 8.60467 14.9508 8.726C15.0441 8.84733 15.1375 8.908 15.2308 8.908ZM17.7788 2.888C17.6855 2.888 17.5921 2.88333 17.4988 2.874C17.4055 2.85533 17.3401 2.82733 17.3028 2.79L16.3648 1.726C16.1688 1.91267 15.9681 2.09 15.7628 2.258C15.5575 2.426 15.3615 2.60333 15.1748 2.79C15.1468 2.818 15.1048 2.83667 15.0488 2.846C15.0021 2.85533 14.9508 2.86 14.8948 2.86C14.7921 2.86 14.7408 2.846 14.7408 2.818C14.7408 2.80867 14.7455 2.79933 14.7548 2.79C14.8855 2.65 15.0395 2.47733 15.2168 2.272C15.4035 2.05733 15.5855 1.84733 15.7628 1.642C15.9495 1.43667 16.1081 1.264 16.2388 1.124C16.3695 0.984 16.4395 0.909333 16.4488 0.899999H16.5468C16.7988 1.21733 17.0508 1.53467 17.3028 1.852C17.5548 2.16933 17.8115 2.482 18.0728 2.79C18.0821 2.79933 18.0868 2.80867 18.0868 2.818C18.0868 2.83667 18.0541 2.85533 17.9888 2.874C17.9328 2.88333 17.8628 2.888 17.7788 2.888ZM19.4044 10.112C19.2738 10.112 19.1618 10.0653 19.0684 9.972C18.9844 9.86933 18.9424 9.70133 18.9424 9.468C18.9424 9.43067 18.9424 9.39333 18.9424 9.356C18.9424 9.30933 18.9471 9.26267 18.9564 9.216C18.9751 9.048 18.9938 8.81467 19.0124 8.516C19.0404 8.21733 19.0591 7.88133 19.0684 7.508C19.0871 7.13467 19.0964 6.76133 19.0964 6.388C19.0964 5.996 19.0824 5.62733 19.0544 5.282C19.0358 4.92733 18.9984 4.64733 18.9424 4.442C19.0171 4.42333 19.1151 4.372 19.2364 4.288C19.3578 4.204 19.4838 4.148 19.6144 4.12C19.6424 4.11067 19.6798 4.106 19.7264 4.106C19.8851 4.106 19.9831 4.19 20.0204 4.358C20.0671 4.526 20.0904 4.73133 20.0904 4.974C20.0904 5.142 20.0858 5.34267 20.0764 5.576C20.0764 5.8 20.0671 5.996 20.0484 6.164C20.1511 5.86533 20.2631 5.60867 20.3844 5.394C20.5058 5.17 20.6364 4.95533 20.7764 4.75C20.9164 4.53533 21.0658 4.32533 21.2244 4.12C21.3831 3.90533 21.5978 3.798 21.8684 3.798C22.1484 3.798 22.3304 3.89133 22.4144 4.078C22.4984 4.26467 22.5404 4.47 22.5404 4.694C22.5404 4.81533 22.5358 4.932 22.5264 5.044C22.5171 5.14667 22.5078 5.24467 22.4984 5.338C22.4984 5.40333 22.4844 5.576 22.4564 5.856C22.4284 6.12667 22.4004 6.44867 22.3724 6.822C22.3444 7.186 22.3304 7.55467 22.3304 7.928C22.3304 8.03067 22.3351 8.17533 22.3444 8.362C22.3538 8.53933 22.3724 8.72133 22.4004 8.908C22.4284 9.08533 22.4751 9.23933 22.5404 9.37C22.6151 9.49133 22.7131 9.552 22.8344 9.552C22.9091 9.552 22.9931 9.524 23.0864 9.468C23.1891 9.39333 23.2778 9.29533 23.3524 9.174C23.4364 9.05267 23.5018 8.93133 23.5484 8.81C23.5858 8.726 23.6231 8.63267 23.6604 8.53C23.6978 8.42733 23.7304 8.32 23.7584 8.208C23.7958 8.096 23.8471 8.04 23.9124 8.04C23.9591 8.04 23.9824 8.08667 23.9824 8.18V8.236C23.9824 8.30133 23.9684 8.38533 23.9404 8.488C23.9218 8.59067 23.8938 8.69333 23.8564 8.796C23.7444 9.14133 23.5764 9.44467 23.3524 9.706C23.1378 9.958 22.8344 10.084 22.4424 10.084C22.1811 10.084 21.9758 9.986 21.8264 9.79C21.6864 9.58467 21.5838 9.32333 21.5184 9.006C21.4811 8.82867 21.4531 8.65133 21.4344 8.474C21.4251 8.29667 21.4204 8.11933 21.4204 7.942C21.4204 7.50333 21.4484 7.06933 21.5044 6.64C21.5698 6.20133 21.6024 5.78133 21.6024 5.38C21.6024 5.24933 21.5838 5.128 21.5464 5.016C21.5184 4.89467 21.4484 4.834 21.3364 4.834C21.2244 4.834 21.0891 4.94133 20.9304 5.156C20.7718 5.36133 20.6084 5.66467 20.4404 6.066C20.2724 6.458 20.1324 6.906 20.0204 7.41C19.9084 7.90467 19.8524 8.41333 19.8524 8.936C19.8524 9.25333 19.8804 9.57533 19.9364 9.902C19.8711 9.94867 19.7871 9.99533 19.6844 10.042C19.5818 10.0887 19.4884 10.112 19.4044 10.112ZM32.9592 10.77C32.7445 10.77 32.5298 10.686 32.3152 10.518C32.1005 10.35 31.9465 10.0933 31.8532 9.748C31.7598 9.39333 31.6945 8.992 31.6572 8.544C31.6198 8.096 31.6012 7.61533 31.6012 7.102C31.6012 6.46733 31.6245 5.81867 31.6712 5.156C31.7272 4.484 31.7972 3.83533 31.8812 3.21C31.9745 2.58467 32.0725 2.02933 32.1752 1.544C31.7925 1.49733 31.4098 1.45533 31.0272 1.418C30.6445 1.38067 30.2525 1.348 29.8512 1.32C29.7298 1.31067 29.6132 1.306 29.5012 1.306C29.3892 1.29667 29.2772 1.292 29.1652 1.292C28.2878 1.292 27.5412 1.404 26.9252 1.628C26.3092 1.84267 25.8845 2.118 25.6512 2.454C25.5298 2.63133 25.4692 2.818 25.4692 3.014C25.4692 3.30333 25.5998 3.57867 25.8612 3.84C26.1318 4.092 26.5238 4.25533 27.0372 4.33C27.2798 4.36733 27.5178 4.39533 27.7512 4.414C27.9845 4.42333 28.2038 4.428 28.4092 4.428C28.6425 4.428 28.8432 4.42333 29.0112 4.414C29.1885 4.39533 29.3098 4.38133 29.3752 4.372C29.4032 4.36267 29.4452 4.358 29.5012 4.358C29.6412 4.358 29.7112 4.386 29.7112 4.442C29.7112 4.498 29.6178 4.55867 29.4312 4.624C29.1978 4.69867 28.9225 4.764 28.6052 4.82C28.2878 4.876 27.9612 4.904 27.6252 4.904C27.2052 4.904 26.7992 4.848 26.4072 4.736C26.0245 4.61467 25.7072 4.414 25.4552 4.134C25.2125 3.84467 25.0912 3.448 25.0912 2.944C25.0912 2.51467 25.1985 2.15533 25.4132 1.866C25.6372 1.57667 25.9265 1.348 26.2812 1.18C26.6452 1.00267 27.0325 0.871999 27.4432 0.787999C27.8632 0.703999 28.2738 0.647999 28.6752 0.62C29.0765 0.592 29.4265 0.577999 29.7252 0.577999C30.2385 0.577999 30.7192 0.615333 31.1672 0.69C31.6245 0.764667 32.0165 0.802 32.3432 0.802H32.3572C32.3758 0.736666 32.3945 0.676 32.4132 0.62C32.4318 0.563999 32.4505 0.507999 32.4692 0.451999C32.4785 0.423999 32.4972 0.409999 32.5252 0.409999C32.5625 0.400666 32.5952 0.395999 32.6232 0.395999C32.8658 0.395999 33.0525 0.433333 33.1832 0.508C33.3138 0.582666 33.4165 0.718 33.4912 0.913999L33.4632 0.998C34.0232 1.10067 34.6345 1.20333 35.2972 1.306C35.9598 1.39933 36.5665 1.446 37.1172 1.446C37.2478 1.446 37.4532 1.43667 37.7332 1.418C38.0225 1.39933 38.3212 1.35733 38.6292 1.292C38.9372 1.22667 39.1985 1.12867 39.4132 0.998C39.6372 0.857999 39.7492 0.671333 39.7492 0.438C39.7492 0.391333 39.7445 0.344666 39.7352 0.298C39.7258 0.241999 39.7025 0.195333 39.6652 0.158C39.6465 0.139333 39.6372 0.111333 39.6372 0.0739993C39.6372 0.0273327 39.6652 0.00399935 39.7212 0.00399935C39.7865 0.00399935 39.8378 0.0366662 39.8752 0.102C39.9685 0.251333 40.0152 0.395999 40.0152 0.535999C40.0152 0.834666 39.8985 1.096 39.6652 1.32C39.4318 1.53467 39.1332 1.70267 38.7692 1.824C38.4052 1.936 38.0225 1.992 37.6212 1.992C36.8558 1.992 36.1185 1.964 35.4092 1.908C34.6998 1.84267 34.0045 1.768 33.3232 1.684C33.2298 2.11333 33.1225 2.65467 33.0012 3.308C32.8892 3.96133 32.7865 4.652 32.6932 5.38C32.5998 6.108 32.5392 6.80333 32.5112 7.466C32.5112 7.55933 32.5065 7.65733 32.4972 7.76C32.4972 7.86267 32.4972 7.97 32.4972 8.082C32.4972 8.39933 32.5112 8.72133 32.5392 9.048C32.5765 9.36533 32.6418 9.63133 32.7352 9.846C32.8285 10.0607 32.9685 10.168 33.1552 10.168C33.2485 10.168 33.3465 10.1493 33.4492 10.112C33.5518 10.0747 33.6172 10.0373 33.6452 10H33.7432C33.7245 10.252 33.6358 10.4433 33.4772 10.574C33.3278 10.7047 33.1552 10.77 32.9592 10.77ZM37.4618 10.07C37.1538 10.07 36.9111 9.972 36.7338 9.776C36.5565 9.57067 36.4305 9.30933 36.3558 8.992C36.2905 8.66533 36.2578 8.31533 36.2578 7.942C36.2578 7.54067 36.2811 7.14867 36.3278 6.766C36.3838 6.374 36.4398 6.02867 36.4958 5.73C36.5611 5.43133 36.6078 5.226 36.6358 5.114C36.3745 5.09533 36.1691 5.05333 36.0198 4.988C35.8705 4.92267 35.7445 4.84333 35.6418 4.75C35.6045 5.198 35.5438 5.67867 35.4598 6.192C35.3851 6.70533 35.2965 7.2 35.1938 7.676C35.0911 8.14267 34.9791 8.544 34.8578 8.88C34.8205 9.00133 34.7598 9.062 34.6758 9.062C34.6105 9.062 34.5778 9.02 34.5778 8.936C34.5778 8.91733 34.5778 8.894 34.5778 8.866C34.5871 8.838 34.5965 8.81 34.6058 8.782C34.7551 8.35267 34.8811 7.886 34.9838 7.382C35.0865 6.86867 35.1658 6.374 35.2218 5.898C35.2778 5.422 35.3058 5.02533 35.3058 4.708V4.554C35.0725 4.45133 34.8998 4.302 34.7878 4.106C34.6851 3.91 34.6338 3.72333 34.6338 3.546C34.6338 3.41533 34.6571 3.29867 34.7038 3.196C34.7598 3.09333 34.8391 3.042 34.9418 3.042H34.9698C35.1005 3.042 35.2171 3.13533 35.3198 3.322C35.4225 3.49933 35.5065 3.7 35.5718 3.924C35.6371 4.13867 35.6698 4.31133 35.6698 4.442C35.7818 4.526 35.9031 4.58667 36.0338 4.624C36.1738 4.66133 36.2905 4.68 36.3838 4.68C36.5051 4.68 36.5845 4.66133 36.6218 4.624C36.6965 4.54933 36.7851 4.442 36.8878 4.302C36.9998 4.162 37.1725 4.092 37.4058 4.092C37.5645 4.092 37.7558 4.13867 37.9798 4.232C37.8678 4.46533 37.7651 4.73133 37.6718 5.03C37.5785 5.31933 37.4991 5.62733 37.4338 5.954C37.4245 6.02867 37.4011 6.178 37.3638 6.402C37.3265 6.626 37.2938 6.88267 37.2658 7.172C37.2378 7.46133 37.2238 7.75067 37.2238 8.04C37.2238 8.45067 37.2658 8.81467 37.3498 9.132C37.4431 9.44 37.6111 9.594 37.8538 9.594C38.0031 9.594 38.1338 9.53333 38.2458 9.412C38.3578 9.29067 38.4558 9.14133 38.5398 8.964C38.6238 8.77733 38.6938 8.6 38.7498 8.432C38.8058 8.25467 38.8478 8.11467 38.8758 8.012C38.8945 7.928 38.9318 7.886 38.9878 7.886C39.0345 7.886 39.0578 7.93733 39.0578 8.04V8.11C39.0578 8.53933 38.9785 8.90333 38.8198 9.202C38.6705 9.49133 38.4745 9.71067 38.2318 9.86C37.9891 10 37.7325 10.07 37.4618 10.07ZM40.4453 10.14C40.128 10.14 39.8667 10.056 39.6613 9.888C39.4653 9.72 39.3113 9.50067 39.1993 9.23C39.0967 8.95933 39.022 8.66533 38.9753 8.348C38.938 8.02133 38.9193 7.704 38.9193 7.396C38.9193 7.16267 38.9287 6.948 38.9473 6.752C38.966 6.54667 38.98 6.36933 38.9893 6.22C39.036 5.828 39.1387 5.436 39.2973 5.044C39.456 4.64267 39.6893 4.31133 39.9973 4.05C40.3053 3.77933 40.7113 3.644 41.2153 3.644C41.5607 3.644 41.8267 3.756 42.0133 3.98C42.2093 4.204 42.3447 4.498 42.4193 4.862C42.5033 5.21667 42.5453 5.59 42.5453 5.982C42.5453 6.374 42.5173 6.75667 42.4613 7.13C42.4147 7.494 42.3587 7.788 42.2933 8.012C42.2187 8.30133 42.0973 8.614 41.9293 8.95C41.7613 9.27667 41.5513 9.55667 41.2993 9.79C41.0567 10.0233 40.772 10.14 40.4453 10.14ZM40.9073 9.37C41.1033 9.37 41.2667 9.27667 41.3973 9.09C41.5373 8.90333 41.654 8.68867 41.7473 8.446C41.8407 8.20333 41.906 7.998 41.9433 7.83C41.9807 7.68067 42.0087 7.494 42.0273 7.27C42.0553 7.046 42.0693 6.808 42.0693 6.556C42.0693 6.17333 42.0273 5.8 41.9433 5.436C41.8593 5.06267 41.7053 4.80133 41.4813 4.652C41.3693 4.57733 41.3133 4.48867 41.3133 4.386C41.3133 4.31133 41.3413 4.24133 41.3973 4.176C41.4533 4.11067 41.5 4.064 41.5373 4.036C41.444 3.97067 41.3553 3.938 41.2713 3.938C41.1033 3.938 40.954 4.03133 40.8233 4.218C40.6927 4.40467 40.5807 4.62867 40.4873 4.89C40.4033 5.15133 40.3333 5.40333 40.2773 5.646C40.2307 5.87933 40.2027 6.04267 40.1933 6.136C40.184 6.23867 40.17 6.39733 40.1513 6.612C40.1327 6.81733 40.1233 7.046 40.1233 7.298C40.1233 7.61533 40.142 7.93267 40.1793 8.25C40.226 8.56733 40.3053 8.83333 40.4173 9.048C40.5293 9.26267 40.6927 9.37 40.9073 9.37ZM40.5853 11.68C40.4547 11.68 40.3427 11.6333 40.2493 11.54C40.1653 11.456 40.1233 11.344 40.1233 11.204C40.1233 11.0827 40.1653 10.9753 40.2493 10.882C40.3427 10.7887 40.4547 10.742 40.5853 10.742C40.716 10.742 40.828 10.7887 40.9213 10.882C41.0147 10.9753 41.0613 11.0827 41.0613 11.204C41.0613 11.344 41.0147 11.456 40.9213 11.54C40.828 11.6333 40.716 11.68 40.5853 11.68ZM43.3986 10.112C43.2679 10.112 43.1559 10.0653 43.0626 9.972C42.9786 9.86933 42.9366 9.70133 42.9366 9.468C42.9366 9.43067 42.9366 9.39333 42.9366 9.356C42.9366 9.30933 42.9412 9.26267 42.9506 9.216C42.9692 9.048 42.9879 8.81467 43.0066 8.516C43.0346 8.21733 43.0532 7.88133 43.0626 7.508C43.0812 7.13467 43.0906 6.76133 43.0906 6.388C43.0906 5.996 43.0766 5.62733 43.0486 5.282C43.0299 4.92733 42.9926 4.64733 42.9366 4.442C43.0112 4.42333 43.1092 4.372 43.2306 4.288C43.3519 4.204 43.4779 4.148 43.6086 4.12C43.6366 4.11067 43.6739 4.106 43.7206 4.106C43.8792 4.106 43.9772 4.19 44.0146 4.358C44.0612 4.526 44.0846 4.73133 44.0846 4.974C44.0846 5.142 44.0799 5.34267 44.0706 5.576C44.0706 5.8 44.0612 5.996 44.0426 6.164C44.1452 5.86533 44.2572 5.60867 44.3786 5.394C44.4999 5.17 44.6306 4.95533 44.7706 4.75C44.9106 4.53533 45.0599 4.32533 45.2186 4.12C45.3772 3.90533 45.5919 3.798 45.8626 3.798C46.1426 3.798 46.3246 3.89133 46.4086 4.078C46.4926 4.26467 46.5346 4.47 46.5346 4.694C46.5346 4.81533 46.5299 4.932 46.5206 5.044C46.5112 5.14667 46.5019 5.24467 46.4926 5.338C46.4926 5.40333 46.4786 5.576 46.4506 5.856C46.4226 6.12667 46.3946 6.44867 46.3666 6.822C46.3386 7.186 46.3246 7.55467 46.3246 7.928C46.3246 8.03067 46.3292 8.17533 46.3386 8.362C46.3479 8.53933 46.3666 8.72133 46.3946 8.908C46.4226 9.08533 46.4692 9.23933 46.5346 9.37C46.6092 9.49133 46.7072 9.552 46.8286 9.552C46.9032 9.552 46.9872 9.524 47.0806 9.468C47.1832 9.39333 47.2719 9.29533 47.3466 9.174C47.4306 9.05267 47.4959 8.93133 47.5426 8.81C47.5799 8.726 47.6172 8.63267 47.6546 8.53C47.6919 8.42733 47.7246 8.32 47.7526 8.208C47.7899 8.096 47.8412 8.04 47.9066 8.04C47.9532 8.04 47.9766 8.08667 47.9766 8.18V8.236C47.9766 8.30133 47.9626 8.38533 47.9346 8.488C47.9159 8.59067 47.8879 8.69333 47.8506 8.796C47.7386 9.14133 47.5706 9.44467 47.3466 9.706C47.1319 9.958 46.8286 10.084 46.4366 10.084C46.1752 10.084 45.9699 9.986 45.8206 9.79C45.6806 9.58467 45.5779 9.32333 45.5126 9.006C45.4752 8.82867 45.4472 8.65133 45.4286 8.474C45.4192 8.29667 45.4146 8.11933 45.4146 7.942C45.4146 7.50333 45.4426 7.06933 45.4986 6.64C45.5639 6.20133 45.5966 5.78133 45.5966 5.38C45.5966 5.24933 45.5779 5.128 45.5406 5.016C45.5126 4.89467 45.4426 4.834 45.3306 4.834C45.2186 4.834 45.0832 4.94133 44.9246 5.156C44.7659 5.36133 44.6026 5.66467 44.4346 6.066C44.2666 6.458 44.1266 6.906 44.0146 7.41C43.9026 7.90467 43.8466 8.41333 43.8466 8.936C43.8466 9.25333 43.8746 9.57533 43.9306 9.902C43.8652 9.94867 43.7812 9.99533 43.6786 10.042C43.5759 10.0887 43.4826 10.112 43.3986 10.112ZM48.9948 15.152C48.4814 15.152 48.1128 15.0213 47.8888 14.76C47.6741 14.508 47.5668 14.1907 47.5668 13.808C47.5668 13.5187 47.6181 13.2107 47.7208 12.884C47.8234 12.5667 47.9541 12.2493 48.1128 11.932C48.3274 11.512 48.6121 11.1247 48.9668 10.77C49.3214 10.4153 49.6854 10.1027 50.0588 9.832C50.4321 9.552 50.7541 9.328 51.0248 9.16V9.062C51.0248 8.894 51.0154 8.66533 50.9968 8.376C50.9874 8.08667 50.9734 7.78333 50.9548 7.466C50.9361 7.14867 50.9174 6.86867 50.8988 6.626C50.8801 6.69133 50.8614 6.75667 50.8428 6.822C50.8241 6.878 50.8054 6.934 50.7868 6.99C50.7028 7.30733 50.6048 7.648 50.4928 8.012C50.3808 8.376 50.2501 8.71667 50.1008 9.034C49.9514 9.342 49.7788 9.59867 49.5828 9.804C49.3961 10 49.1861 10.098 48.9528 10.098C48.7101 10.098 48.5141 10.0233 48.3648 9.874C48.2154 9.72467 48.1034 9.538 48.0288 9.314C47.9541 9.08067 47.9028 8.84267 47.8748 8.6C47.8468 8.35733 47.8328 8.138 47.8328 7.942C47.8328 7.19533 47.9168 6.486 48.0848 5.814C48.2621 5.142 48.5654 4.60533 48.9948 4.204C49.1814 4.02667 49.3728 3.90067 49.5688 3.826C49.7741 3.75133 49.9654 3.714 50.1428 3.714C50.3574 3.714 50.5534 3.76067 50.7308 3.854C50.9174 3.938 51.0668 4.05 51.1788 4.19C51.2908 4.05933 51.4168 3.98 51.5568 3.952C51.6968 3.91467 51.8228 3.896 51.9348 3.896H52.1028C52.2428 3.896 52.3128 3.924 52.3128 3.98C52.3128 3.99867 52.2941 4.02667 52.2568 4.064C52.1634 4.148 52.0888 4.31133 52.0328 4.554C51.9861 4.79667 51.9534 5.086 51.9348 5.422C51.9161 5.74867 51.9068 6.08933 51.9068 6.444C51.9068 6.84533 51.9114 7.23267 51.9208 7.606C51.9301 7.97 51.9348 8.25467 51.9348 8.46V8.614C52.1961 8.45533 52.4294 8.32933 52.6348 8.236C52.8401 8.13333 52.9941 8.082 53.0968 8.082C53.1154 8.082 53.1294 8.08667 53.1388 8.096C53.1481 8.096 53.1574 8.096 53.1668 8.096C53.2134 8.10533 53.2368 8.138 53.2368 8.194C53.2368 8.23133 53.2274 8.26867 53.2088 8.306C53.1901 8.334 53.1621 8.348 53.1248 8.348C53.0128 8.35733 52.8588 8.418 52.6628 8.53C52.4761 8.63267 52.3034 8.754 52.1448 8.894C51.9861 9.02467 51.9068 9.14133 51.9068 9.244V9.468C51.9068 10.756 51.7714 11.82 51.5008 12.66C51.2394 13.5 50.8848 14.1253 50.4368 14.536C49.9981 14.9467 49.5174 15.152 48.9948 15.152ZM49.3167 8.964H49.3588C49.5361 8.964 49.6948 8.84733 49.8348 8.614C49.9841 8.38067 50.1148 8.08667 50.2268 7.732C50.3481 7.368 50.4508 6.99467 50.5348 6.612C50.6281 6.22 50.7028 5.87 50.7588 5.562C50.8148 5.24467 50.8568 5.016 50.8848 4.876C50.9221 4.652 50.9874 4.46533 51.0808 4.316C50.9781 4.18533 50.8334 4.12 50.6468 4.12C50.3668 4.12 50.1241 4.20867 49.9188 4.386C49.7228 4.56333 49.5548 4.79667 49.4148 5.086C49.2841 5.37533 49.1768 5.68333 49.0928 6.01C49.0181 6.32733 48.9621 6.63533 48.9248 6.934C48.8874 7.22333 48.8688 7.466 48.8688 7.662C48.8688 7.72733 48.8688 7.83 48.8688 7.97C48.8781 8.11 48.8968 8.25933 48.9248 8.418C48.9528 8.56733 48.9948 8.698 49.0508 8.81C49.1161 8.91267 49.2048 8.964 49.3167 8.964ZM48.8408 14.858C49.2981 14.858 49.6808 14.6387 49.9888 14.2C50.2968 13.7613 50.5348 13.1407 50.7028 12.338C50.8801 11.5447 50.9921 10.602 51.0388 9.51C50.8894 9.594 50.6608 9.76667 50.3528 10.028C50.0448 10.2893 49.7228 10.6113 49.3868 10.994C49.0601 11.386 48.7848 11.8293 48.5608 12.324C48.4394 12.5947 48.3461 12.856 48.2808 13.108C48.2154 13.3693 48.1828 13.6073 48.1828 13.822C48.1828 14.13 48.2388 14.3773 48.3508 14.564C48.4721 14.76 48.6354 14.858 48.8408 14.858ZM54.9135 7.004C54.8201 7.004 54.7735 6.95733 54.7735 6.864L54.4095 0.899999V0.872C54.4095 0.713333 54.4748 0.596666 54.6055 0.521999C54.7455 0.447333 54.8948 0.409999 55.0535 0.409999C55.2215 0.409999 55.3755 0.451999 55.5155 0.535999C55.6648 0.610666 55.7395 0.717999 55.7395 0.857999V0.899999L55.0535 6.864C55.0535 6.95733 55.0068 7.004 54.9135 7.004ZM54.9135 10.07C54.7268 10.07 54.5681 10.0047 54.4375 9.874C54.3068 9.74333 54.2415 9.58467 54.2415 9.398C54.2415 9.21133 54.3068 9.05267 54.4375 8.922C54.5681 8.79133 54.7268 8.726 54.9135 8.726C55.1001 8.726 55.2588 8.79133 55.3895 8.922C55.5201 9.05267 55.5855 9.21133 55.5855 9.398C55.5855 9.58467 55.5201 9.74333 55.3895 9.874C55.2588 10.0047 55.1001 10.07 54.9135 10.07Z" fill="white"/>
</svg>
